<?xml version="1.0" encoding="us-ascii" standalone="no"?><svg xmlns="http://www.w3.org/2000/svg" xmlns:xlink="http://www.w3.org/1999/xlink" contentStyleType="text/css" height="1637.1094px" preserveAspectRatio="none" style="width:3284px;height:1637px;background:#FFFFFF;" version="1.1" viewBox="0 0 3284 1637" width="3284.2448px" zoomAndPan="magnify"><defs/><g><!--cluster CDPins--><g id="cluster_CDPins"><path d="M2241.5365,405.3385 L2314.5833,405.3385 A5.3711,5.3711 0 0 1 2318.1641,408.9193 L2328.1901,440.6031 L3271.3542,440.6031 A3.5807,3.5807 0 0 1 3274.9349,444.1839 L3274.9349,1416.5365 A3.5807,3.5807 0 0 1 3271.3542,1420.1172 L2241.5365,1420.1172 A3.5807,3.5807 0 0 1 2237.9557,1416.5365 L2237.9557,408.9193 A3.5807,3.5807 0 0 1 2241.5365,405.3385 " fill="none" style="stroke:#000000;stroke-width:2.1484375;"/><line style="stroke:#000000;stroke-width:2.1484375;" x1="2237.9557" x2="2328.1901" y1="440.6031" y2="440.6031"/><text fill="#000000" font-family="sans-serif" font-size="20.0521" font-weight="bold" lengthAdjust="spacing" textLength="71.6146" x="2243.6849" y="429.8414">CDPins</text></g><!--cluster FastLED--><g id="cluster_FastLED"><rect fill="#EEEEEE" height="468.3594" rx="3.5807" ry="3.5807" style="stroke:#181818;stroke-width:1.4322916666666667;" width="330.8594" x="1408.6589" y="909.5052"/><text fill="#000000" font-family="sans-serif" font-size="20.0521" font-weight="bold" lengthAdjust="spacing" textLength="81.6406" x="1533.2682" y="934.008">FastLED</text></g><!--cluster DHT--><g id="cluster_DHT"><rect fill="#EEEEEE" height="163.2813" rx="3.5807" ry="3.5807" style="stroke:#181818;stroke-width:1.4322916666666667;" width="204.8177" x="311.5234" y="1465.9505"/><text fill="#000000" font-family="sans-serif" font-size="20.0521" font-weight="bold" lengthAdjust="spacing" textLength="40.1042" x="393.8802" y="1490.4533">DHT</text></g><!--cluster LiquidCrystal_I2C--><g id="cluster_LiquidCrystal_I2C"><rect fill="#EEEEEE" height="163.2813" rx="3.5807" ry="3.5807" style="stroke:#181818;stroke-width:1.4322916666666667;" width="302.2135" x="1049.1536" y="516.3411"/><text fill="#000000" font-family="sans-serif" font-size="20.0521" font-weight="bold" lengthAdjust="spacing" textLength="173.3073" x="1113.6068" y="540.844">LiquidCrystal_I2C</text></g><!--class Pin--><g id="elem_Pin"><rect codeLine="7" fill="#F1F1F1" height="175.4333" id="Pin" rx="3.5807" ry="3.5807" style="stroke:#181818;stroke-width:0.7161458333333334;" width="146.0938" x="2616.0807" y="907.3568"/><ellipse cx="2669.7917" cy="930.2734" fill="#A9DCDF" rx="15.7552" ry="15.7552" style="stroke:#181818;stroke-width:1.4322916666666667;"/><path d="M2672.9248,932.8023 L2666.9942,932.8023 L2666.39,934.2794 L2666.9942,934.2794 Q2667.867,934.2794 2668.2475,934.6151 Q2668.6279,934.9508 2668.6279,935.5103 Q2668.6279,936.0474 2668.2475,936.3831 Q2667.867,936.7188 2666.9942,936.7188 L2663.7044,936.7188 Q2662.8316,936.7188 2662.4736,936.3831 Q2662.0931,936.0474 2662.0931,935.4879 Q2662.0931,934.9508 2662.4959,934.6151 Q2662.8764,934.257 2663.7716,934.2794 L2667.5985,924.7457 L2666.0095,924.7457 Q2665.1367,924.7457 2664.7563,924.41 Q2664.3758,924.0743 2664.3758,923.5148 Q2664.3758,922.9777 2664.7563,922.642 Q2665.1367,922.3063 2666.0095,922.3063 L2671.2687,922.3063 L2676.1251,934.2794 Q2676.9755,934.2794 2677.2441,934.4808 Q2677.8035,934.8612 2677.8035,935.5103 Q2677.8035,936.0474 2677.4231,936.3831 Q2677.065,936.7188 2676.1922,936.7188 L2672.9024,936.7188 Q2672.0296,936.7188 2671.6492,936.3831 Q2671.2687,936.0474 2671.2687,935.4879 Q2671.2687,934.9508 2671.6492,934.6151 Q2672.0296,934.2794 2672.9024,934.2794 L2673.5067,934.2794 L2672.9248,932.8023 Z M2671.8953,930.363 L2669.9483,925.529 L2667.9789,930.363 L2671.8953,930.363 Z " fill="#000000"/><text fill="#000000" font-family="sans-serif" font-size="20.0521" font-style="italic" lengthAdjust="spacing" textLength="28.6458" x="2697.0052" y="938.5763">Pin</text><line style="stroke:#181818;stroke-width:0.7161458333333334;" x1="2617.513" x2="2760.7422" y1="953.1901" y2="953.1901"/><polygon fill="none" points="2631.8359,967.2417,2637.5651,972.9708,2631.8359,978.7,2626.1068,972.9708" style="stroke:#B38D22;stroke-width:1.4322916666666667;"/><text fill="#000000" font-family="sans-serif" font-size="20.0521" lengthAdjust="spacing" textLength="108.8542" x="2644.7266" y="980.5575">const int pin</text><ellipse cx="2631.8359" cy="1001.074" fill="none" rx="4.2969" ry="4.2969" style="stroke:#038048;stroke-width:1.4322916666666667;"/><text fill="#000000" font-family="sans-serif" font-size="20.0521" lengthAdjust="spacing" textLength="75.9115" x="2644.7266" y="1007.2283">int value</text><line style="stroke:#181818;stroke-width:0.7161458333333334;" x1="2617.513" x2="2760.7422" y1="1017.9901" y2="1017.9901"/><ellipse cx="2631.8359" cy="1039.2031" fill="#84BE84" rx="4.2969" ry="4.2969" style="stroke:#038048;stroke-width:1.4322916666666667;"/><text fill="#000000" font-family="sans-serif" font-size="20.0521" lengthAdjust="spacing" textLength="108.8542" x="2644.7266" y="1045.3575">Pin(int _pin)</text><ellipse cx="2631.8359" cy="1065.874" fill="#84BE84" rx="4.2969" ry="4.2969" style="stroke:#038048;stroke-width:1.4322916666666667;"/><text fill="#000000" font-family="sans-serif" font-size="20.0521" font-style="italic" lengthAdjust="spacing" textLength="105.9896" x="2644.7266" y="1072.0284">void begin()</text></g><!--class EntradaDigital--><g id="elem_EntradaDigital"><rect codeLine="14" fill="#F1F1F1" height="148.7625" id="EntradaDigital" rx="3.5807" ry="3.5807" style="stroke:#181818;stroke-width:0.7161458333333334;" width="232.0313" x="2573.112" y="1248.2422"/><ellipse cx="2621.0221" cy="1271.1589" fill="#ADD1B2" rx="15.7552" ry="15.7552" style="stroke:#181818;stroke-width:1.4322916666666667;"/><path d="M2624.9833,1265.2507 Q2625.2071,1264.9373 2625.4757,1264.7807 Q2625.7442,1264.624 2626.0575,1264.624 Q2626.5946,1264.624 2626.9303,1265.0045 Q2627.266,1265.3625 2627.266,1266.2354 L2627.266,1268.3167 Q2627.266,1269.1895 2626.9303,1269.5699 Q2626.5946,1269.9504 2626.0575,1269.9504 Q2625.5652,1269.9504 2625.2743,1269.6594 Q2624.9833,1269.3909 2624.8267,1268.6523 Q2624.7595,1268.1376 2624.491,1267.8691 Q2624.021,1267.3319 2623.1482,1267.0186 Q2622.2754,1266.7053 2621.3802,1266.7053 Q2620.2836,1266.7053 2619.366,1267.1753 Q2618.4709,1267.6453 2617.7547,1268.7195 Q2617.061,1269.7937 2617.061,1271.2708 L2617.061,1272.8373 Q2617.061,1274.6053 2618.3366,1275.7914 Q2619.6122,1276.9552 2621.8949,1276.9552 Q2623.2377,1276.9552 2624.1777,1276.5971 Q2624.7371,1276.3733 2625.3414,1275.7467 Q2625.7218,1275.3662 2625.9233,1275.2543 Q2626.1471,1275.1424 2626.438,1275.1424 Q2626.908,1275.1424 2627.266,1275.5229 Q2627.6465,1275.8809 2627.6465,1276.3733 Q2627.6465,1276.8656 2627.1541,1277.4475 Q2626.438,1278.2756 2625.2966,1278.7455 Q2623.7524,1279.3945 2621.8949,1279.3945 Q2619.7241,1279.3945 2618.0009,1278.4993 Q2616.591,1277.7832 2615.6063,1276.2614 Q2614.6216,1274.7172 2614.6216,1272.8821 L2614.6216,1271.226 Q2614.6216,1269.3237 2615.4944,1267.69 Q2616.3896,1266.0339 2617.9561,1265.1611 Q2619.5227,1264.266 2621.2907,1264.266 Q2622.3425,1264.266 2623.2601,1264.5121 Q2624.2,1264.7359 2624.9833,1265.2507 Z " fill="#000000"/><text fill="#000000" font-family="sans-serif" font-size="20.0521" lengthAdjust="spacing" textLength="127.474" x="2646.9466" y="1279.4617">EntradaDigital</text><line style="stroke:#181818;stroke-width:0.7161458333333334;" x1="2574.5443" x2="2803.7109" y1="1294.0755" y2="1294.0755"/><line style="stroke:#181818;stroke-width:0.7161458333333334;" x1="2574.5443" x2="2803.7109" y1="1305.5339" y2="1305.5339"/><ellipse cx="2588.8672" cy="1326.7469" fill="#84BE84" rx="4.2969" ry="4.2969" style="stroke:#038048;stroke-width:1.4322916666666667;"/><text fill="#000000" font-family="sans-serif" font-size="20.0521" lengthAdjust="spacing" textLength="107.4219" x="2601.7578" y="1332.9013">void begin()</text><ellipse cx="2588.8672" cy="1353.4177" fill="#84BE84" rx="4.2969" ry="4.2969" style="stroke:#038048;stroke-width:1.4322916666666667;"/><text fill="#000000" font-family="sans-serif" font-size="20.0521" lengthAdjust="spacing" textLength="83.0729" x="2601.7578" y="1359.5721">int read()</text><ellipse cx="2588.8672" cy="1380.0886" fill="#84BE84" rx="4.2969" ry="4.2969" style="stroke:#038048;stroke-width:1.4322916666666667;"/><text fill="#000000" font-family="sans-serif" font-size="20.0521" lengthAdjust="spacing" textLength="194.7917" x="2601.7578" y="1386.2429">unsigned int pulseIn()</text></g><!--class EntradaAnal?gica--><g id="elem_EntradaAnal&#242;gica"><rect codeLine="20" fill="#F1F1F1" height="122.0917" id="EntradaAnal&#242;gica" rx="3.5807" ry="3.5807" style="stroke:#181818;stroke-width:0.7161458333333334;" width="209.1146" x="2260.8724" y="552.1484"/><ellipse cx="2283.6458" cy="575.0651" fill="#ADD1B2" rx="15.7552" ry="15.7552" style="stroke:#181818;stroke-width:1.4322916666666667;"/><path d="M2287.607,569.1569 Q2287.8308,568.8436 2288.0994,568.6869 Q2288.3679,568.5303 2288.6812,568.5303 Q2289.2183,568.5303 2289.554,568.9107 Q2289.8897,569.2688 2289.8897,570.1416 L2289.8897,572.2229 Q2289.8897,573.0957 2289.554,573.4762 Q2289.2183,573.8566 2288.6812,573.8566 Q2288.1889,573.8566 2287.8979,573.5657 Q2287.607,573.2971 2287.4504,572.5586 Q2287.3832,572.0439 2287.1147,571.7753 Q2286.6447,571.2382 2285.7719,570.9249 Q2284.8991,570.6116 2284.0039,570.6116 Q2282.9073,570.6116 2281.9897,571.0815 Q2281.0946,571.5515 2280.3784,572.6257 Q2279.6847,573.7 2279.6847,575.177 L2279.6847,576.7436 Q2279.6847,578.5116 2280.9603,579.6977 Q2282.2359,580.8614 2284.5186,580.8614 Q2285.8614,580.8614 2286.8014,580.5033 Q2287.3608,580.2795 2287.9651,579.6529 Q2288.3455,579.2725 2288.547,579.1606 Q2288.7708,579.0487 2289.0617,579.0487 Q2289.5317,579.0487 2289.8897,579.4291 Q2290.2702,579.7872 2290.2702,580.2795 Q2290.2702,580.7719 2289.7778,581.3538 Q2289.0617,582.1818 2287.9203,582.6518 Q2286.3761,583.3008 2284.5186,583.3008 Q2282.3478,583.3008 2280.6246,582.4056 Q2279.2147,581.6895 2278.23,580.1676 Q2277.2453,578.6235 2277.2453,576.7883 L2277.2453,575.1322 Q2277.2453,573.23 2278.1181,571.5963 Q2279.0133,569.9402 2280.5798,569.0674 Q2282.1464,568.1722 2283.9144,568.1722 Q2284.9662,568.1722 2285.8838,568.4184 Q2286.8237,568.6422 2287.607,569.1569 Z " fill="#000000"/><text fill="#000000" font-family="sans-serif" font-size="20.0521" lengthAdjust="spacing" textLength="160.4167" x="2303.9844" y="583.3679">EntradaAnal&#242;gica</text><line style="stroke:#181818;stroke-width:0.7161458333333334;" x1="2262.3047" x2="2468.5547" y1="597.9818" y2="597.9818"/><line style="stroke:#181818;stroke-width:0.7161458333333334;" x1="2262.3047" x2="2468.5547" y1="609.4401" y2="609.4401"/><ellipse cx="2276.6276" cy="630.6531" fill="#84BE84" rx="4.2969" ry="4.2969" style="stroke:#038048;stroke-width:1.4322916666666667;"/><text fill="#000000" font-family="sans-serif" font-size="20.0521" lengthAdjust="spacing" textLength="107.4219" x="2289.5182" y="636.8075">void begin()</text><ellipse cx="2276.6276" cy="657.324" fill="#84BE84" rx="4.2969" ry="4.2969" style="stroke:#038048;stroke-width:1.4322916666666667;"/><text fill="#000000" font-family="sans-serif" font-size="20.0521" lengthAdjust="spacing" textLength="171.875" x="2289.5182" y="663.4783">unsigned int read()</text></g><!--class SortidaDigital--><g id="elem_SortidaDigital"><rect codeLine="25" fill="#F1F1F1" height="308.7875" id="SortidaDigital" rx="3.5807" ry="3.5807" style="stroke:#181818;stroke-width:0.7161458333333334;" width="343.75" x="2908.2682" y="458.3333"/><ellipse cx="3013.8997" cy="481.25" fill="#ADD1B2" rx="15.7552" ry="15.7552" style="stroke:#181818;stroke-width:1.4322916666666667;"/><path d="M3017.8609,475.3418 Q3018.0847,475.0285 3018.3533,474.8718 Q3018.6218,474.7152 3018.9351,474.7152 Q3019.4722,474.7152 3019.8079,475.0956 Q3020.1436,475.4537 3020.1436,476.3265 L3020.1436,478.4078 Q3020.1436,479.2806 3019.8079,479.6611 Q3019.4722,480.0415 3018.9351,480.0415 Q3018.4428,480.0415 3018.1519,479.7506 Q3017.8609,479.482 3017.7043,478.7435 Q3017.6371,478.2288 3017.3686,477.9602 Q3016.8986,477.4231 3016.0258,477.1098 Q3015.153,476.7965 3014.2578,476.7965 Q3013.1612,476.7965 3012.2437,477.2664 Q3011.3485,477.7364 3010.6323,478.8106 Q3009.9386,479.8848 3009.9386,481.3619 L3009.9386,482.9285 Q3009.9386,484.6965 3011.2142,485.8826 Q3012.4898,487.0463 3014.7725,487.0463 Q3016.1153,487.0463 3017.0553,486.6882 Q3017.6147,486.4644 3018.219,485.8378 Q3018.5994,485.4574 3018.8009,485.3455 Q3019.0247,485.2336 3019.3156,485.2336 Q3019.7856,485.2336 3020.1436,485.614 Q3020.5241,485.9721 3020.5241,486.4644 Q3020.5241,486.9568 3020.0317,487.5387 Q3019.3156,488.3667 3018.1742,488.8367 Q3016.63,489.4857 3014.7725,489.4857 Q3012.6017,489.4857 3010.8785,488.5905 Q3009.4686,487.8743 3008.4839,486.3525 Q3007.4992,484.8083 3007.4992,482.9732 L3007.4992,481.3171 Q3007.4992,479.4149 3008.372,477.7812 Q3009.2672,476.1251 3010.8337,475.2523 Q3012.4003,474.3571 3014.1683,474.3571 Q3015.2201,474.3571 3016.1377,474.6033 Q3017.0776,474.8271 3017.8609,475.3418 Z " fill="#000000"/><text fill="#000000" font-family="sans-serif" font-size="20.0521" lengthAdjust="spacing" textLength="120.3125" x="3043.2617" y="489.5528">SortidaDigital</text><line style="stroke:#181818;stroke-width:0.7161458333333334;" x1="2909.7005" x2="3250.5859" y1="504.1667" y2="504.1667"/><line style="stroke:#181818;stroke-width:0.7161458333333334;" x1="2909.7005" x2="3250.5859" y1="515.625" y2="515.625"/><ellipse cx="2924.0234" cy="536.838" fill="#84BE84" rx="4.2969" ry="4.2969" style="stroke:#038048;stroke-width:1.4322916666666667;"/><text fill="#000000" font-family="sans-serif" font-size="20.0521" lengthAdjust="spacing" textLength="107.4219" x="2936.9141" y="542.9924">void begin()</text><ellipse cx="2924.0234" cy="563.5089" fill="#84BE84" rx="4.2969" ry="4.2969" style="stroke:#038048;stroke-width:1.4322916666666667;"/><text fill="#000000" font-family="sans-serif" font-size="20.0521" lengthAdjust="spacing" textLength="80.2083" x="2936.9141" y="569.6632">void on()</text><ellipse cx="2924.0234" cy="590.1797" fill="#84BE84" rx="4.2969" ry="4.2969" style="stroke:#038048;stroke-width:1.4322916666666667;"/><text fill="#000000" font-family="sans-serif" font-size="20.0521" lengthAdjust="spacing" textLength="80.2083" x="2936.9141" y="596.3341">void off()</text><ellipse cx="2924.0234" cy="616.8505" fill="#84BE84" rx="4.2969" ry="4.2969" style="stroke:#038048;stroke-width:1.4322916666666667;"/><text fill="#000000" font-family="sans-serif" font-size="20.0521" lengthAdjust="spacing" textLength="219.1406" x="2936.9141" y="623.0049">void on(unsigned long t)</text><ellipse cx="2924.0234" cy="643.5214" fill="#84BE84" rx="4.2969" ry="4.2969" style="stroke:#038048;stroke-width:1.4322916666666667;"/><text fill="#000000" font-family="sans-serif" font-size="20.0521" lengthAdjust="spacing" textLength="219.1406" x="2936.9141" y="649.6758">void off(unsigned long t)</text><ellipse cx="2924.0234" cy="670.1922" fill="#84BE84" rx="4.2969" ry="4.2969" style="stroke:#038048;stroke-width:1.4322916666666667;"/><text fill="#000000" font-family="sans-serif" font-size="20.0521" lengthAdjust="spacing" textLength="156.1198" x="2936.9141" y="676.3466">void set(int estat)</text><ellipse cx="2924.0234" cy="696.863" fill="#84BE84" rx="4.2969" ry="4.2969" style="stroke:#038048;stroke-width:1.4322916666666667;"/><text fill="#000000" font-family="sans-serif" font-size="20.0521" lengthAdjust="spacing" textLength="306.5104" x="2936.9141" y="703.0174">void set(int estat, unsigned long t)</text><ellipse cx="2924.0234" cy="723.5339" fill="#84BE84" rx="4.2969" ry="4.2969" style="stroke:#038048;stroke-width:1.4322916666666667;"/><text fill="#000000" font-family="sans-serif" font-size="20.0521" lengthAdjust="spacing" textLength="97.3958" x="2936.9141" y="729.6883">int toggle()</text><ellipse cx="2924.0234" cy="750.2047" fill="#84BE84" rx="4.2969" ry="4.2969" style="stroke:#038048;stroke-width:1.4322916666666667;"/><text fill="#000000" font-family="sans-serif" font-size="20.0521" lengthAdjust="spacing" textLength="138.9323" x="2936.9141" y="756.3591">void pulseOut()</text></g><!--class SortidaAnal?gica--><g id="elem_SortidaAnal&#242;gica"><rect codeLine="37" fill="#F1F1F1" height="148.7625" id="SortidaAnal&#242;gica" rx="3.5807" ry="3.5807" style="stroke:#181818;stroke-width:0.7161458333333334;" width="338.0208" x="2520.1172" y="538.5417"/><ellipse cx="2606.4128" cy="561.4583" fill="#ADD1B2" rx="15.7552" ry="15.7552" style="stroke:#181818;stroke-width:1.4322916666666667;"/><path d="M2610.3739,555.5501 Q2610.5977,555.2368 2610.8663,555.0802 Q2611.1348,554.9235 2611.4482,554.9235 Q2611.9853,554.9235 2612.321,555.304 Q2612.6567,555.662 2612.6567,556.5348 L2612.6567,558.6161 Q2612.6567,559.4889 2612.321,559.8694 Q2611.9853,560.2498 2611.4482,560.2498 Q2610.9558,560.2498 2610.6649,559.9589 Q2610.3739,559.6903 2610.2173,558.9518 Q2610.1501,558.4371 2609.8816,558.1685 Q2609.4116,557.6314 2608.5388,557.3181 Q2607.666,557.0048 2606.7708,557.0048 Q2605.6742,557.0048 2604.7567,557.4748 Q2603.8615,557.9447 2603.1453,559.019 Q2602.4516,560.0932 2602.4516,561.5702 L2602.4516,563.1368 Q2602.4516,564.9048 2603.7272,566.0909 Q2605.0028,567.2546 2607.2856,567.2546 Q2608.6283,567.2546 2609.5683,566.8966 Q2610.1278,566.6728 2610.732,566.0461 Q2611.1125,565.6657 2611.3139,565.5538 Q2611.5377,565.4419 2611.8286,565.4419 Q2612.2986,565.4419 2612.6567,565.8223 Q2613.0371,566.1804 2613.0371,566.6728 Q2613.0371,567.1651 2612.5448,567.747 Q2611.8286,568.575 2610.6873,569.045 Q2609.1431,569.694 2607.2856,569.694 Q2605.1147,569.694 2603.3915,568.7988 Q2601.9816,568.0827 2600.9969,566.5609 Q2600.0122,565.0167 2600.0122,563.1816 L2600.0122,561.5255 Q2600.0122,559.6232 2600.885,557.9895 Q2601.7802,556.3334 2603.3468,555.4606 Q2604.9133,554.5654 2606.6813,554.5654 Q2607.7332,554.5654 2608.6507,554.8116 Q2609.5907,555.0354 2610.3739,555.5501 Z " fill="#000000"/><text fill="#000000" font-family="sans-serif" font-size="20.0521" lengthAdjust="spacing" textLength="153.2552" x="2635.7747" y="569.7611">SortidaAnal&#242;gica</text><line style="stroke:#181818;stroke-width:0.7161458333333334;" x1="2521.5495" x2="2856.7057" y1="584.375" y2="584.375"/><line style="stroke:#181818;stroke-width:0.7161458333333334;" x1="2521.5495" x2="2856.7057" y1="595.8333" y2="595.8333"/><ellipse cx="2535.8724" cy="617.0464" fill="#84BE84" rx="4.2969" ry="4.2969" style="stroke:#038048;stroke-width:1.4322916666666667;"/><text fill="#000000" font-family="sans-serif" font-size="20.0521" lengthAdjust="spacing" textLength="107.4219" x="2548.763" y="623.2007">void begin()</text><ellipse cx="2535.8724" cy="643.7172" fill="#84BE84" rx="4.2969" ry="4.2969" style="stroke:#038048;stroke-width:1.4322916666666667;"/><text fill="#000000" font-family="sans-serif" font-size="20.0521" lengthAdjust="spacing" textLength="156.1198" x="2548.763" y="649.8716">void set(int valor)</text><ellipse cx="2535.8724" cy="670.388" fill="#84BE84" rx="4.2969" ry="4.2969" style="stroke:#038048;stroke-width:1.4322916666666667;"/><text fill="#000000" font-family="sans-serif" font-size="20.0521" lengthAdjust="spacing" textLength="300.7813" x="2548.763" y="676.5424">void set(int valor, int min, int max)</text></g><!--class FastLED--><g id="elem_FastLED"><rect codeLine="70" fill="#F1F1F1" height="63.8545" id="FastLED" rx="3.5807" ry="3.5807" style="stroke:#181818;stroke-width:0.7161458333333334;" width="124.6094" x="1591.276" y="962.5"/><ellipse cx="1612.7604" cy="994.4272" fill="#ADD1B2" rx="15.7552" ry="15.7552" style="stroke:#181818;stroke-width:1.4322916666666667;"/><path d="M1616.7216,988.519 Q1616.9454,988.2057 1617.2139,988.0491 Q1617.4825,987.8924 1617.7958,987.8924 Q1618.3329,987.8924 1618.6686,988.2729 Q1619.0043,988.6309 1619.0043,989.5037 L1619.0043,991.585 Q1619.0043,992.4578 1618.6686,992.8383 Q1618.3329,993.2187 1617.7958,993.2187 Q1617.3035,993.2187 1617.0125,992.9278 Q1616.7216,992.6593 1616.5649,991.9207 Q1616.4978,991.406 1616.2292,991.1374 Q1615.7593,990.6003 1614.8865,990.287 Q1614.0137,989.9737 1613.1185,989.9737 Q1612.0219,989.9737 1611.1043,990.4437 Q1610.2091,990.9136 1609.493,991.9879 Q1608.7992,993.0621 1608.7992,994.5391 L1608.7992,996.1057 Q1608.7992,997.8737 1610.0749,999.0598 Q1611.3505,1000.2235 1613.6332,1000.2235 Q1614.976,1000.2235 1615.9159,999.8655 Q1616.4754,999.6417 1617.0797,999.015 Q1617.4601,998.6346 1617.6615,998.5227 Q1617.8853,998.4108 1618.1763,998.4108 Q1618.6462,998.4108 1619.0043,998.7912 Q1619.3848,999.1493 1619.3848,999.6417 Q1619.3848,1000.134 1618.8924,1000.7159 Q1618.1763,1001.5439 1617.0349,1002.0139 Q1615.4907,1002.6629 1613.6332,1002.6629 Q1611.4624,1002.6629 1609.7392,1001.7677 Q1608.3293,1001.0516 1607.3446,999.5298 Q1606.3599,997.9856 1606.3599,996.1505 L1606.3599,994.4944 Q1606.3599,992.5921 1607.2327,990.9584 Q1608.1278,989.3023 1609.6944,988.4295 Q1611.261,987.5343 1613.029,987.5343 Q1614.0808,987.5343 1614.9984,987.7805 Q1615.9383,988.0043 1616.7216,988.519 Z " fill="#000000"/><text fill="#000000" font-family="sans-serif" font-size="17.1875" font-style="italic" lengthAdjust="spacing" textLength="68.75" x="1637.8255" y="988.2085">&#171;extern&#187;</text><text fill="#000000" font-family="sans-serif" font-size="20.0521" lengthAdjust="spacing" textLength="78.776" x="1632.8125" y="1014.1604">FastLED</text></g><!--class CRGB--><g id="elem_CRGB"><rect codeLine="73" fill="#F1F1F1" height="63.8545" id="CRGB" rx="3.5807" ry="3.5807" style="stroke:#181818;stroke-width:0.7161458333333334;" width="108.8542" x="1431.5755" y="962.5"/><ellipse cx="1453.0599" cy="994.4272" fill="#ADD1B2" rx="15.7552" ry="15.7552" style="stroke:#181818;stroke-width:1.4322916666666667;"/><path d="M1457.0211,988.519 Q1457.2449,988.2057 1457.5134,988.0491 Q1457.782,987.8924 1458.0953,987.8924 Q1458.6324,987.8924 1458.9681,988.2729 Q1459.3038,988.6309 1459.3038,989.5037 L1459.3038,991.585 Q1459.3038,992.4578 1458.9681,992.8383 Q1458.6324,993.2187 1458.0953,993.2187 Q1457.6029,993.2187 1457.312,992.9278 Q1457.0211,992.6593 1456.8644,991.9207 Q1456.7973,991.406 1456.5287,991.1374 Q1456.0588,990.6003 1455.186,990.287 Q1454.3132,989.9737 1453.418,989.9737 Q1452.3214,989.9737 1451.4038,990.4437 Q1450.5086,990.9136 1449.7925,991.9879 Q1449.0987,993.0621 1449.0987,994.5391 L1449.0987,996.1057 Q1449.0987,997.8737 1450.3743,999.0598 Q1451.65,1000.2235 1453.9327,1000.2235 Q1455.2755,1000.2235 1456.2154,999.8655 Q1456.7749,999.6417 1457.3792,999.015 Q1457.7596,998.6346 1457.961,998.5227 Q1458.1848,998.4108 1458.4757,998.4108 Q1458.9457,998.4108 1459.3038,998.7912 Q1459.6842,999.1493 1459.6842,999.6417 Q1459.6842,1000.134 1459.1919,1000.7159 Q1458.4757,1001.5439 1457.3344,1002.0139 Q1455.7902,1002.6629 1453.9327,1002.6629 Q1451.7619,1002.6629 1450.0387,1001.7677 Q1448.6287,1001.0516 1447.644,999.5298 Q1446.6593,997.9856 1446.6593,996.1505 L1446.6593,994.4944 Q1446.6593,992.5921 1447.5321,990.9584 Q1448.4273,989.3023 1449.9939,988.4295 Q1451.5605,987.5343 1453.3285,987.5343 Q1454.3803,987.5343 1455.2979,987.7805 Q1456.2378,988.0043 1457.0211,988.519 Z " fill="#000000"/><text fill="#000000" font-family="sans-serif" font-size="17.1875" font-style="italic" lengthAdjust="spacing" textLength="68.75" x="1470.2474" y="988.2085">&#171;extern&#187;</text><text fill="#000000" font-family="sans-serif" font-size="20.0521" lengthAdjust="spacing" textLength="57.2917" x="1475.9766" y="1014.1604">CRGB</text></g><!--class HTMLColorCode--><g id="elem_HTMLColorCode"><rect codeLine="76" fill="#F1F1F1" height="63.8545" id="HTMLColorCode" rx="3.5807" ry="3.5807" style="stroke:#181818;stroke-width:0.7161458333333334;" width="196.224" x="1432.2917" y="1290.4948"/><ellipse cx="1453.776" cy="1322.422" fill="#EB937F" rx="15.7552" ry="15.7552" style="stroke:#181818;stroke-width:1.4322916666666667;"/><path d="M1452.1423,1323.5634 L1452.1423,1327.1441 L1458.3415,1327.1441 L1458.3415,1325.8237 Q1458.3415,1324.9509 1458.6772,1324.5705 Q1459.0352,1324.19 1459.5723,1324.19 Q1460.1095,1324.19 1460.4451,1324.5705 Q1460.7808,1324.9509 1460.7808,1325.8237 L1460.7808,1329.5835 L1449.3225,1329.5835 Q1448.4273,1329.5835 1448.0469,1329.2478 Q1447.6888,1328.9121 1447.6888,1328.3526 Q1447.6888,1327.8155 1448.0693,1327.4798 Q1448.4497,1327.1441 1449.3225,1327.1441 L1449.703,1327.1441 L1449.703,1317.6104 L1449.3225,1317.6104 Q1448.4273,1317.6104 1448.0469,1317.2747 Q1447.6888,1316.939 1447.6888,1316.3795 Q1447.6888,1315.8424 1448.0469,1315.5067 Q1448.4273,1315.1711 1449.3225,1315.1711 L1460.2437,1315.1711 L1460.2437,1318.8861 Q1460.2437,1319.7589 1459.908,1320.1393 Q1459.5947,1320.4974 1459.0352,1320.4974 Q1458.4981,1320.4974 1458.1624,1320.1393 Q1457.8267,1319.7589 1457.8267,1318.8861 L1457.8267,1317.6104 L1452.1423,1317.6104 L1452.1423,1321.124 L1454.2684,1321.124 Q1454.2684,1320.1841 1454.4474,1319.9155 Q1454.8279,1319.3336 1455.4993,1319.3336 Q1456.0364,1319.3336 1456.3721,1319.7141 Q1456.7078,1320.0722 1456.7078,1320.945 L1456.7078,1323.7648 Q1456.7078,1324.5481 1456.5287,1324.8166 Q1456.1483,1325.3761 1455.4993,1325.3761 Q1454.8279,1325.3761 1454.4474,1324.7943 Q1454.2684,1324.5257 1454.2684,1323.5634 L1452.1423,1323.5634 Z " fill="#000000"/><text fill="#000000" font-family="sans-serif" font-size="17.1875" font-style="italic" lengthAdjust="spacing" textLength="68.75" x="1514.6484" y="1316.2033">&#171;extern&#187;</text><text fill="#000000" font-family="sans-serif" font-size="20.0521" lengthAdjust="spacing" textLength="150.3906" x="1473.8281" y="1342.1552">HTMLColorCode</text></g><!--class DHT--><g id="elem_DHT"><rect codeLine="91" fill="#F1F1F1" height="63.8545" id="DHT" rx="3.5807" ry="3.5807" style="stroke:#181818;stroke-width:0.7161458333333334;" width="108.8542" x="373.112" y="1530.4036"/><ellipse cx="394.5964" cy="1562.3309" fill="#ADD1B2" rx="15.7552" ry="15.7552" style="stroke:#181818;stroke-width:1.4322916666666667;"/><path d="M398.5575,1556.4227 Q398.7813,1556.1094 399.0499,1555.9527 Q399.3184,1555.7961 399.6318,1555.7961 Q400.1689,1555.7961 400.5046,1556.1765 Q400.8403,1556.5346 400.8403,1557.4074 L400.8403,1559.4887 Q400.8403,1560.3615 400.5046,1560.7419 Q400.1689,1561.1224 399.6318,1561.1224 Q399.1394,1561.1224 398.8485,1560.8315 Q398.5575,1560.5629 398.4009,1559.8244 Q398.3337,1559.3096 398.0652,1559.0411 Q397.5952,1558.504 396.7224,1558.1907 Q395.8496,1557.8773 394.9544,1557.8773 Q393.8578,1557.8773 392.9403,1558.3473 Q392.0451,1558.8173 391.3289,1559.8915 Q390.6352,1560.9657 390.6352,1562.4428 L390.6352,1564.0093 Q390.6352,1565.7773 391.9108,1566.9635 Q393.1864,1568.1272 395.4692,1568.1272 Q396.8119,1568.1272 397.7519,1567.7691 Q398.3114,1567.5453 398.9156,1566.9187 Q399.2961,1566.5382 399.4975,1566.4263 Q399.7213,1566.3144 400.0122,1566.3144 Q400.4822,1566.3144 400.8403,1566.6949 Q401.2207,1567.053 401.2207,1567.5453 Q401.2207,1568.0377 400.7284,1568.6195 Q400.0122,1569.4476 398.8708,1569.9176 Q397.3267,1570.5666 395.4692,1570.5666 Q393.2983,1570.5666 391.5751,1569.6714 Q390.1652,1568.9552 389.1805,1567.4334 Q388.1958,1565.8892 388.1958,1564.0541 L388.1958,1562.398 Q388.1958,1560.4958 389.0686,1558.8621 Q389.9638,1557.206 391.5304,1556.3332 Q393.0969,1555.438 394.8649,1555.438 Q395.9167,1555.438 396.8343,1555.6842 Q397.7743,1555.9079 398.5575,1556.4227 Z " fill="#000000"/><text fill="#000000" font-family="sans-serif" font-size="17.1875" font-style="italic" lengthAdjust="spacing" textLength="68.75" x="411.7839" y="1556.1122">&#171;extern&#187;</text><text fill="#000000" font-family="sans-serif" font-size="20.0521" lengthAdjust="spacing" textLength="40.1042" x="426.1068" y="1582.0641">DHT</text></g><!--class LiquidCrystal_I2C--><g id="elem_LiquidCrystal_I2C"><rect codeLine="104" fill="#F1F1F1" height="63.8545" id="LiquidCrystal_I2C" rx="3.5807" ry="3.5807" style="stroke:#181818;stroke-width:0.7161458333333334;" width="204.8177" x="1111.4583" y="580.7943"/><ellipse cx="1132.9427" cy="612.7215" fill="#ADD1B2" rx="15.7552" ry="15.7552" style="stroke:#181818;stroke-width:1.4322916666666667;"/><path d="M1136.9039,606.8133 Q1137.1277,606.5 1137.3962,606.3433 Q1137.6648,606.1867 1137.9781,606.1867 Q1138.5152,606.1867 1138.8509,606.5671 Q1139.1866,606.9252 1139.1866,607.798 L1139.1866,609.8793 Q1139.1866,610.7521 1138.8509,611.1326 Q1138.5152,611.513 1137.9781,611.513 Q1137.4858,611.513 1137.1948,611.2221 Q1136.9039,610.9535 1136.7472,610.215 Q1136.6801,609.7003 1136.4115,609.4317 Q1135.9416,608.8946 1135.0688,608.5813 Q1134.196,608.268 1133.3008,608.268 Q1132.2042,608.268 1131.2866,608.7379 Q1130.3914,609.2079 1129.6753,610.2821 Q1128.9815,611.3564 1128.9815,612.8334 L1128.9815,614.4 Q1128.9815,616.168 1130.2572,617.3541 Q1131.5328,618.5178 1133.8155,618.5178 Q1135.1583,618.5178 1136.0982,618.1597 Q1136.6577,617.9359 1137.262,617.3093 Q1137.6424,616.9289 1137.8438,616.817 Q1138.0676,616.7051 1138.3586,616.7051 Q1138.8285,616.7051 1139.1866,617.0855 Q1139.5671,617.4436 1139.5671,617.9359 Q1139.5671,618.4283 1139.0747,619.0102 Q1138.3586,619.8382 1137.2172,620.3082 Q1135.673,620.9572 1133.8155,620.9572 Q1131.6447,620.9572 1129.9215,620.062 Q1128.5116,619.3459 1127.5269,617.824 Q1126.5422,616.2799 1126.5422,614.4447 L1126.5422,612.7886 Q1126.5422,610.8864 1127.415,609.2527 Q1128.3101,607.5966 1129.8767,606.7238 Q1131.4433,605.8286 1133.2113,605.8286 Q1134.2631,605.8286 1135.1807,606.0748 Q1136.1206,606.2986 1136.9039,606.8133 Z " fill="#000000"/><text fill="#000000" font-family="sans-serif" font-size="17.1875" font-style="italic" lengthAdjust="spacing" textLength="68.75" x="1198.112" y="606.5028">&#171;extern&#187;</text><text fill="#000000" font-family="sans-serif" font-size="20.0521" lengthAdjust="spacing" textLength="158.9844" x="1152.9948" y="632.4547">LiquidCrystal_I2C</text></g><!--class Vector--><g id="elem_Pos"><rect codeLine="44" fill="#F1F1F1" height="122.0917" id="Vector" rx="3.5807" ry="3.5807" style="stroke:#181818;stroke-width:0.7161458333333334;" width="95.9635" x="1996.6146" y="552.1484"/><ellipse cx="2018.099" cy="575.0651" fill="#F1F1F1" rx="15.7552" ry="15.7552" style="stroke:#181818;stroke-width:1.4322916666666667;"/><path d="M2015.391,581.5999 Q2015.0777,581.9804 2014.8763,582.0923 Q2014.6749,582.2042 2014.4063,582.2042 Q2013.8468,582.2042 2013.4888,581.8237 Q2013.1531,581.4433 2013.1531,580.5929 L2013.1531,578.9368 Q2013.1531,578.064 2013.4888,577.7059 Q2013.8468,577.3254 2014.4063,577.3254 Q2014.8315,577.3254 2015.1225,577.5492 Q2015.4134,577.773 2015.5701,578.3101 Q2015.7267,578.8249 2015.8834,579.0263 Q2016.2415,579.3844 2017.1143,579.7648 Q2017.9871,580.1453 2019.0389,580.1453 Q2020.6726,580.1453 2021.7021,579.3844 Q2022.3735,578.9144 2022.3735,578.243 Q2022.3735,577.7954 2022.0601,577.3926 Q2021.7468,576.9897 2021.0083,576.7436 Q2020.5383,576.5645 2018.8822,576.2512 Q2016.8905,575.8708 2015.861,575.356 Q2014.8315,574.8413 2014.2273,573.9014 Q2013.6454,572.939 2013.6454,571.8201 Q2013.6454,570.0745 2015.1001,568.7764 Q2016.5771,567.4561 2018.927,567.4561 Q2019.8669,567.4561 2020.6502,567.6575 Q2021.4559,567.8589 2022.1273,568.2841 Q2022.5972,567.8365 2023.0672,567.8365 Q2023.6043,567.8365 2023.94,568.217 Q2024.2757,568.575 2024.2757,569.4478 L2024.2757,571.283 Q2024.2757,572.1558 2023.94,572.5362 Q2023.6043,572.8943 2023.0672,572.8943 Q2022.6196,572.8943 2022.2839,572.6257 Q2022.0154,572.4243 2021.8811,571.8201 Q2021.7692,571.2158 2021.5678,570.9473 Q2021.2097,570.4997 2020.516,570.2087 Q2019.8446,569.8954 2018.927,569.8954 Q2017.6066,569.8954 2016.8457,570.4997 Q2016.0848,571.1039 2016.0848,571.7753 Q2016.0848,572.2229 2016.3981,572.6481 Q2016.7114,573.0733 2017.3157,573.3195 Q2017.7185,573.4762 2019.576,573.8566 Q2021.4559,574.2147 2022.463,574.6623 Q2023.4701,575.0875 2024.1414,576.0274 Q2024.8128,576.9674 2024.8128,578.2654 Q2024.8128,580.0781 2023.5372,581.1523 Q2021.8363,582.5846 2019.2179,582.5846 Q2018.2109,582.5846 2017.2485,582.3385 Q2016.3086,582.0923 2015.391,581.5999 Z " fill="#000000"/><text fill="#000000" font-family="sans-serif" font-size="20.0521" lengthAdjust="spacing" textLength="34.375" x="2038.151" y="583.3679">Vector</text><rect fill="#FFFFFF" height="25.7253" style="stroke:#181818;stroke-width:1.4322916666666667;stroke-dasharray:2.0,2.0;" width="12.8906" x="2083.9844" y="547.8516"/><text fill="#000000" font-family="sans-serif" font-size="17.1875" font-style="italic" lengthAdjust="spacing" textLength="10.026" x="2085.4167" y="567.8309">T</text><line style="stroke:#181818;stroke-width:0.7161458333333334;" x1="1998.0469" x2="2091.1458" y1="597.9818" y2="597.9818"/><text fill="#000000" font-family="sans-serif" font-size="20.0521" lengthAdjust="spacing" textLength="27.2135" x="2005.2083" y="625.3492">T x</text><text fill="#000000" font-family="sans-serif" font-size="20.0521" lengthAdjust="spacing" textLength="28.6458" x="2005.2083" y="652.02">T y</text><line style="stroke:#181818;stroke-width:0.7161458333333334;" x1="1998.0469" x2="2091.1458" y1="662.7818" y2="662.7818"/></g><!--class Axis--><g id="elem_Axis"><rect codeLine="49" fill="#F1F1F1" height="122.0917" id="Axis" rx="3.5807" ry="3.5807" style="stroke:#181818;stroke-width:0.7161458333333334;" width="81.6406" x="1903.5156" y="933.8542"/><ellipse cx="1925" cy="956.7708" fill="#EB937F" rx="15.7552" ry="15.7552" style="stroke:#181818;stroke-width:1.4322916666666667;"/><path d="M1923.3663,957.9122 L1923.3663,961.4929 L1929.5654,961.4929 L1929.5654,960.1725 Q1929.5654,959.2997 1929.9011,958.9193 Q1930.2592,958.5388 1930.7963,958.5388 Q1931.3334,958.5388 1931.6691,958.9193 Q1932.0048,959.2997 1932.0048,960.1725 L1932.0048,963.9323 L1920.5465,963.9323 Q1919.6513,963.9323 1919.2708,963.5966 Q1918.9128,963.2609 1918.9128,962.7014 Q1918.9128,962.1643 1919.2932,961.8286 Q1919.6737,961.4929 1920.5465,961.4929 L1920.9269,961.4929 L1920.9269,951.9592 L1920.5465,951.9592 Q1919.6513,951.9592 1919.2708,951.6235 Q1918.9128,951.2878 1918.9128,950.7284 Q1918.9128,950.1912 1919.2708,949.8556 Q1919.6513,949.5199 1920.5465,949.5199 L1931.4677,949.5199 L1931.4677,953.2349 Q1931.4677,954.1077 1931.132,954.4881 Q1930.8187,954.8462 1930.2592,954.8462 Q1929.7221,954.8462 1929.3864,954.4881 Q1929.0507,954.1077 1929.0507,953.2349 L1929.0507,951.9592 L1923.3663,951.9592 L1923.3663,955.4728 L1925.4924,955.4728 Q1925.4924,954.5329 1925.6714,954.2643 Q1926.0518,953.6825 1926.7232,953.6825 Q1927.2603,953.6825 1927.596,954.0629 Q1927.9317,954.421 1927.9317,955.2938 L1927.9317,958.1136 Q1927.9317,958.8969 1927.7527,959.1654 Q1927.3722,959.7249 1926.7232,959.7249 Q1926.0518,959.7249 1925.6714,959.1431 Q1925.4924,958.8745 1925.4924,957.9122 L1923.3663,957.9122 Z " fill="#000000"/><text fill="#000000" font-family="sans-serif" font-size="20.0521" lengthAdjust="spacing" textLength="35.8073" x="1945.0521" y="965.0736">Axis</text><line style="stroke:#181818;stroke-width:0.7161458333333334;" x1="1904.9479" x2="1983.724" y1="979.6875" y2="979.6875"/><text fill="#000000" font-family="sans-serif" font-size="20.0521" lengthAdjust="spacing" textLength="11.4583" x="1912.1094" y="1007.0549">X</text><text fill="#000000" font-family="sans-serif" font-size="20.0521" lengthAdjust="spacing" textLength="12.8906" x="1912.1094" y="1033.7257">Y</text><line style="stroke:#181818;stroke-width:0.7161458333333334;" x1="1904.9479" x2="1983.724" y1="1044.4875" y2="1044.4875"/></g><!--class Joystick--><g id="elem_Joystick"><rect codeLine="54" fill="#F1F1F1" height="335.4584" id="Joystick" rx="3.5807" ry="3.5807" style="stroke:#181818;stroke-width:0.7161458333333334;" width="416.7969" x="1786.0677" y="23.6328"/><ellipse cx="1953.2878" cy="46.5495" fill="#ADD1B2" rx="15.7552" ry="15.7552" style="stroke:#181818;stroke-width:1.4322916666666667;"/><path d="M1957.2489,40.6413 Q1957.4727,40.328 1957.7413,40.1713 Q1958.0098,40.0146 1958.3232,40.0146 Q1958.8603,40.0146 1959.196,40.3951 Q1959.5317,40.7532 1959.5317,41.626 L1959.5317,43.7073 Q1959.5317,44.5801 1959.196,44.9605 Q1958.8603,45.341 1958.3232,45.341 Q1957.8308,45.341 1957.5399,45.05 Q1957.2489,44.7815 1957.0923,44.043 Q1957.0251,43.5282 1956.7566,43.2597 Q1956.2866,42.7226 1955.4138,42.4093 Q1954.541,42.0959 1953.6458,42.0959 Q1952.5492,42.0959 1951.6317,42.5659 Q1950.7365,43.0359 1950.0203,44.1101 Q1949.3266,45.1843 1949.3266,46.6614 L1949.3266,48.2279 Q1949.3266,49.9959 1950.6022,51.182 Q1951.8778,52.3458 1954.1606,52.3458 Q1955.5033,52.3458 1956.4433,51.9877 Q1957.0028,51.7639 1957.607,51.1373 Q1957.9875,50.7568 1958.1889,50.6449 Q1958.4127,50.533 1958.7036,50.533 Q1959.1736,50.533 1959.5317,50.9135 Q1959.9121,51.2716 1959.9121,51.7639 Q1959.9121,52.2563 1959.4198,52.8381 Q1958.7036,53.6662 1957.5623,54.1361 Q1956.0181,54.7852 1954.1606,54.7852 Q1951.9897,54.7852 1950.2665,53.89 Q1948.8566,53.1738 1947.8719,51.652 Q1946.8872,50.1078 1946.8872,48.2727 L1946.8872,46.6166 Q1946.8872,44.7144 1947.76,43.0806 Q1948.6552,41.4246 1950.2218,40.5518 Q1951.7883,39.6566 1953.5563,39.6566 Q1954.6082,39.6566 1955.5257,39.9028 Q1956.4657,40.1265 1957.2489,40.6413 Z " fill="#000000"/><text fill="#000000" font-family="sans-serif" font-size="20.0521" lengthAdjust="spacing" textLength="70.1823" x="1982.6497" y="54.8523">Joystick</text><line style="stroke:#181818;stroke-width:0.7161458333333334;" x1="1787.5" x2="2201.4323" y1="69.4661" y2="69.4661"/><rect fill="none" height="8.5938" style="stroke:#C82930;stroke-width:1.4322916666666667;" width="8.5938" x="1797.526" y="86.3823"/><text fill="#000000" font-family="sans-serif" font-size="20.0521" lengthAdjust="spacing" textLength="116.0156" x="1814.7135" y="96.8335">int deadzone</text><rect fill="none" height="8.5938" style="stroke:#C82930;stroke-width:1.4322916666666667;" width="8.5938" x="1797.526" y="113.0531"/><text fill="#000000" font-family="sans-serif" font-size="20.0521" lengthAdjust="spacing" textLength="117.4479" x="1814.7135" y="123.5044">Vector&lt;int&gt; pos</text><polygon fill="none" points="1801.8229,136.8594,1807.5521,142.5886,1801.8229,148.3177,1796.0938,142.5886" style="stroke:#B38D22;stroke-width:1.4322916666666667;"/><text fill="#000000" font-family="sans-serif" font-size="20.0521" lengthAdjust="spacing" textLength="211.9792" x="1814.7135" y="150.1752">EntradaAnalogica* pinX</text><polygon fill="none" points="1801.8229,163.5302,1807.5521,169.2594,1801.8229,174.9886,1796.0938,169.2594" style="stroke:#B38D22;stroke-width:1.4322916666666667;"/><text fill="#000000" font-family="sans-serif" font-size="20.0521" lengthAdjust="spacing" textLength="213.4115" x="1814.7135" y="176.8461">EntradaAnalogica* pinY</text><ellipse cx="1801.8229" cy="197.3625" fill="none" rx="4.2969" ry="4.2969" style="stroke:#038048;stroke-width:1.4322916666666667;"/><text fill="#000000" font-family="sans-serif" font-size="20.0521" lengthAdjust="spacing" textLength="305.0781" x="1814.7135" y="203.5169">Vector&lt;unsigned long&gt; lastChanged</text><line style="stroke:#181818;stroke-width:0.7161458333333334;" x1="1787.5" x2="2201.4323" y1="214.2787" y2="214.2787"/><rect fill="#F24D5C" height="8.5938" style="stroke:#C82930;stroke-width:1.4322916666666667;" width="8.5938" x="1797.526" y="231.1948"/><text fill="#000000" font-family="sans-serif" font-size="20.0521" lengthAdjust="spacing" textLength="213.4115" x="1814.7135" y="241.6461">int* getPosPtr(Axis axis)</text><ellipse cx="1801.8229" cy="262.1625" fill="#84BE84" rx="4.2969" ry="4.2969" style="stroke:#038048;stroke-width:1.4322916666666667;"/><text fill="#000000" font-family="sans-serif" font-size="20.0521" lengthAdjust="spacing" textLength="379.5573" x="1814.7135" y="268.3169">Joystick(int _pinX, int _pinY, int deadzone)</text><ellipse cx="1801.8229" cy="288.8334" fill="#84BE84" rx="4.2969" ry="4.2969" style="stroke:#038048;stroke-width:1.4322916666666667;"/><text fill="#000000" font-family="sans-serif" font-size="20.0521" lengthAdjust="spacing" textLength="176.1719" x="1814.7135" y="294.9877">bool read(Axis axis)</text><ellipse cx="1801.8229" cy="315.5042" fill="#84BE84" rx="4.2969" ry="4.2969" style="stroke:#038048;stroke-width:1.4322916666666667;"/><text fill="#000000" font-family="sans-serif" font-size="20.0521" lengthAdjust="spacing" textLength="100.2604" x="1814.7135" y="321.6586">bool read()</text><ellipse cx="1801.8229" cy="342.175" fill="#84BE84" rx="4.2969" ry="4.2969" style="stroke:#038048;stroke-width:1.4322916666666667;"/><text fill="#000000" font-family="sans-serif" font-size="20.0521" lengthAdjust="spacing" textLength="242.0573" x="1814.7135" y="348.3294">const int* getPos(Axis axis)</text></g><!--class NeoPixel--><g id="elem_NeoPixel"><rect codeLine="83" fill="#F1F1F1" height="148.7625" id="NeoPixel" rx="3.5807" ry="3.5807" style="stroke:#181818;stroke-width:0.7161458333333334;" width="158.9844" x="1491.0156" y="116.7318"/><ellipse cx="1528.6133" cy="139.6484" fill="#ADD1B2" rx="15.7552" ry="15.7552" style="stroke:#181818;stroke-width:1.4322916666666667;"/><path d="M1532.5745,133.7402 Q1532.7983,133.4269 1533.0668,133.2703 Q1533.3354,133.1136 1533.6487,133.1136 Q1534.1858,133.1136 1534.5215,133.4941 Q1534.8572,133.8521 1534.8572,134.7249 L1534.8572,136.8062 Q1534.8572,137.679 1534.5215,138.0595 Q1534.1858,138.4399 1533.6487,138.4399 Q1533.1563,138.4399 1532.8654,138.149 Q1532.5745,137.8805 1532.4178,137.1419 Q1532.3507,136.6272 1532.0821,136.3586 Q1531.6121,135.8215 1530.7393,135.5082 Q1529.8665,135.1949 1528.9714,135.1949 Q1527.8748,135.1949 1526.9572,135.6649 Q1526.062,136.1348 1525.3459,137.2091 Q1524.6521,138.2833 1524.6521,139.7603 L1524.6521,141.3269 Q1524.6521,143.0949 1525.9277,144.281 Q1527.2034,145.4447 1529.4861,145.4447 Q1530.8289,145.4447 1531.7688,145.0867 Q1532.3283,144.8629 1532.9325,144.2362 Q1533.313,143.8558 1533.5144,143.7439 Q1533.7382,143.632 1534.0291,143.632 Q1534.4991,143.632 1534.8572,144.0125 Q1535.2376,144.3705 1535.2376,144.8629 Q1535.2376,145.3552 1534.7453,145.9371 Q1534.0291,146.7651 1532.8878,147.2351 Q1531.3436,147.8841 1529.4861,147.8841 Q1527.3153,147.8841 1525.592,146.9889 Q1524.1821,146.2728 1523.1974,144.751 Q1522.2127,143.2068 1522.2127,141.3717 L1522.2127,139.7156 Q1522.2127,137.8133 1523.0855,136.1796 Q1523.9807,134.5235 1525.5473,133.6507 Q1527.1139,132.7555 1528.8818,132.7555 Q1529.9337,132.7555 1530.8512,133.0017 Q1531.7912,133.2255 1532.5745,133.7402 Z " fill="#000000"/><text fill="#000000" font-family="sans-serif" font-size="20.0521" lengthAdjust="spacing" textLength="77.3438" x="1552.2461" y="147.9513">NeoPixel</text><line style="stroke:#181818;stroke-width:0.7161458333333334;" x1="1492.4479" x2="1648.5677" y1="162.5651" y2="162.5651"/><ellipse cx="1506.7708" cy="183.7781" fill="none" rx="4.2969" ry="4.2969" style="stroke:#038048;stroke-width:1.4322916666666667;"/><text fill="#000000" font-family="sans-serif" font-size="20.0521" lengthAdjust="spacing" textLength="98.8281" x="1519.6615" y="189.9325">CRGB list[]</text><line style="stroke:#181818;stroke-width:0.7161458333333334;" x1="1492.4479" x2="1648.5677" y1="200.6943" y2="200.6943"/><ellipse cx="1506.7708" cy="221.9073" fill="#84BE84" rx="4.2969" ry="4.2969" style="stroke:#038048;stroke-width:1.4322916666666667;"/><text fill="#000000" font-family="sans-serif" font-size="20.0521" lengthAdjust="spacing" textLength="107.4219" x="1519.6615" y="228.0617">void begin()</text><ellipse cx="1506.7708" cy="248.5781" fill="#84BE84" rx="4.2969" ry="4.2969" style="stroke:#038048;stroke-width:1.4322916666666667;"/><text fill="#000000" font-family="sans-serif" font-size="20.0521" lengthAdjust="spacing" textLength="121.7448" x="1519.6615" y="254.7325">void refresh()</text></g><!--class Range--><g id="elem_Range"><rect codeLine="95" fill="#F1F1F1" height="202.1042" id="Range" rx="3.5807" ry="3.5807" style="stroke:#181818;stroke-width:0.7161458333333334;" width="466.9271" x="398.8932" y="1221.7448"/><ellipse cx="596.1914" cy="1244.6615" fill="#ADD1B2" rx="15.7552" ry="15.7552" style="stroke:#181818;stroke-width:1.4322916666666667;"/><path d="M600.1526,1238.7533 Q600.3764,1238.4399 600.6449,1238.2833 Q600.9135,1238.1266 601.2268,1238.1266 Q601.7639,1238.1266 602.0996,1238.5071 Q602.4353,1238.8652 602.4353,1239.738 L602.4353,1241.8193 Q602.4353,1242.6921 602.0996,1243.0725 Q601.7639,1243.453 601.2268,1243.453 Q600.7345,1243.453 600.4435,1243.162 Q600.1526,1242.8935 599.9959,1242.1549 Q599.9288,1241.6402 599.6602,1241.3717 Q599.1903,1240.8346 598.3175,1240.5212 Q597.4447,1240.2079 596.5495,1240.2079 Q595.4529,1240.2079 594.5353,1240.6779 Q593.6401,1241.1479 592.924,1242.2221 Q592.2302,1243.2963 592.2302,1244.7734 L592.2302,1246.3399 Q592.2302,1248.1079 593.5059,1249.294 Q594.7815,1250.4578 597.0642,1250.4578 Q598.407,1250.4578 599.3469,1250.0997 Q599.9064,1249.8759 600.5107,1249.2493 Q600.8911,1248.8688 601.0925,1248.7569 Q601.3163,1248.645 601.6073,1248.645 Q602.0772,1248.645 602.4353,1249.0255 Q602.8158,1249.3835 602.8158,1249.8759 Q602.8158,1250.3682 602.3234,1250.9501 Q601.6073,1251.7782 600.4659,1252.2481 Q598.9217,1252.8971 597.0642,1252.8971 Q594.8934,1252.8971 593.1702,1252.002 Q591.7603,1251.2858 590.7756,1249.764 Q589.7909,1248.2198 589.7909,1246.3847 L589.7909,1244.7286 Q589.7909,1242.8263 590.6637,1241.1926 Q591.5588,1239.5365 593.1254,1238.6637 Q594.692,1237.7686 596.46,1237.7686 Q597.5118,1237.7686 598.4294,1238.0147 Q599.3693,1238.2385 600.1526,1238.7533 Z " fill="#000000"/><text fill="#000000" font-family="sans-serif" font-size="20.0521" lengthAdjust="spacing" textLength="60.1563" x="625.5534" y="1252.9643">Range</text><line style="stroke:#181818;stroke-width:0.7161458333333334;" x1="400.3255" x2="864.388" y1="1267.5781" y2="1267.5781"/><rect fill="none" height="8.5938" style="stroke:#C82930;stroke-width:1.4322916666666667;" width="8.5938" x="410.3516" y="1284.4943"/><text fill="#000000" font-family="sans-serif" font-size="20.0521" lengthAdjust="spacing" textLength="61.5885" x="427.5391" y="1294.9455">int size</text><rect fill="none" height="8.5938" style="stroke:#C82930;stroke-width:1.4322916666666667;" width="8.5938" x="410.3516" y="1311.1651"/><text fill="#000000" font-family="sans-serif" font-size="20.0521" lengthAdjust="spacing" textLength="90.2344" x="427.5391" y="1321.6164">bool cycle</text><rect fill="none" height="8.5938" style="stroke:#C82930;stroke-width:1.4322916666666667;" width="8.5938" x="410.3516" y="1337.8359"/><text fill="#000000" font-family="sans-serif" font-size="20.0521" lengthAdjust="spacing" textLength="141.7969" x="427.5391" y="1348.2872">const int* range</text><line style="stroke:#181818;stroke-width:0.7161458333333334;" x1="400.3255" x2="864.388" y1="1359.049" y2="1359.049"/><ellipse cx="414.6484" cy="1380.262" fill="#84BE84" rx="4.2969" ry="4.2969" style="stroke:#038048;stroke-width:1.4322916666666667;"/><text fill="#000000" font-family="sans-serif" font-size="20.0521" lengthAdjust="spacing" textLength="429.6875" x="427.5391" y="1386.4164">Range(const int _range[], int _size, bool _cycle)</text><ellipse cx="414.6484" cy="1406.9328" fill="#84BE84" rx="4.2969" ry="4.2969" style="stroke:#038048;stroke-width:1.4322916666666667;"/><text fill="#000000" font-family="sans-serif" font-size="20.0521" lengthAdjust="spacing" textLength="157.5521" x="427.5391" y="1413.0872">int getLevel(int n)</text></g><!--class Pantalla--><g id="elem_Pantalla"><rect codeLine="108" fill="#F1F1F1" height="362.1292" id="Pantalla" rx="3.5807" ry="3.5807" style="stroke:#181818;stroke-width:0.7161458333333334;" width="608.724" x="539.974" y="10.026"/><ellipse cx="801.7253" cy="32.9427" fill="#ADD1B2" rx="15.7552" ry="15.7552" style="stroke:#181818;stroke-width:1.4322916666666667;"/><path d="M805.6864,27.0345 Q805.9102,26.7212 806.1788,26.5645 Q806.4473,26.4079 806.7607,26.4079 Q807.2978,26.4079 807.6335,26.7883 Q807.9692,27.1464 807.9692,28.0192 L807.9692,30.1005 Q807.9692,30.9733 807.6335,31.3538 Q807.2978,31.7342 806.7607,31.7342 Q806.2683,31.7342 805.9774,31.4433 Q805.6864,31.1747 805.5298,30.4362 Q805.4626,29.9215 805.1941,29.6529 Q804.7241,29.1158 803.8513,28.8025 Q802.9785,28.4892 802.0833,28.4892 Q800.9867,28.4892 800.0692,28.9591 Q799.174,29.4291 798.4578,30.5033 Q797.7641,31.5776 797.7641,33.0546 L797.7641,34.6212 Q797.7641,36.3892 799.0397,37.5753 Q800.3153,38.739 802.5981,38.739 Q803.9408,38.739 804.8808,38.3809 Q805.4403,38.1571 806.0445,37.5305 Q806.425,37.1501 806.6264,37.0382 Q806.8502,36.9263 807.1411,36.9263 Q807.6111,36.9263 807.9692,37.3067 Q808.3496,37.6648 808.3496,38.1571 Q808.3496,38.6495 807.8573,39.2314 Q807.1411,40.0594 805.9998,40.5294 Q804.4556,41.1784 802.5981,41.1784 Q800.4272,41.1784 798.704,40.2832 Q797.2941,39.5671 796.3094,38.0452 Q795.3247,36.5011 795.3247,34.6659 L795.3247,33.0098 Q795.3247,31.1076 796.1975,29.4739 Q797.0927,27.8178 798.6593,26.945 Q800.2258,26.0498 801.9938,26.0498 Q803.0457,26.0498 803.9632,26.296 Q804.9032,26.5198 805.6864,27.0345 Z " fill="#000000"/><text fill="#000000" font-family="sans-serif" font-size="20.0521" lengthAdjust="spacing" textLength="73.0469" x="831.0872" y="41.2455">Pantalla</text><line style="stroke:#181818;stroke-width:0.7161458333333334;" x1="541.4063" x2="1147.2656" y1="55.8594" y2="55.8594"/><rect fill="none" height="8.5938" style="stroke:#C82930;stroke-width:1.4322916666666667;" width="8.5938" x="551.4323" y="72.7755"/><text fill="#000000" font-family="sans-serif" font-size="20.0521" lengthAdjust="spacing" textLength="138.9323" x="568.6198" y="83.2268">unsigned long t</text><rect fill="none" height="8.5938" style="stroke:#C82930;stroke-width:1.4322916666666667;" width="8.5938" x="551.4323" y="99.4464"/><text fill="#000000" font-family="sans-serif" font-size="20.0521" lengthAdjust="spacing" textLength="181.901" x="568.6198" y="109.8976">unsigned long maxT</text><rect fill="none" height="8.5938" style="stroke:#C82930;stroke-width:1.4322916666666667;" width="8.5938" x="551.4323" y="126.1172"/><text fill="#000000" font-family="sans-serif" font-size="20.0521" lengthAdjust="spacing" textLength="174.7396" x="568.6198" y="136.5685">Temperatura* temp</text><rect fill="none" height="8.5938" style="stroke:#C82930;stroke-width:1.4322916666666667;" width="8.5938" x="551.4323" y="152.788"/><text fill="#000000" font-family="sans-serif" font-size="20.0521" lengthAdjust="spacing" textLength="118.8802" x="568.6198" y="163.2393">Humitat* hum</text><rect fill="none" height="8.5938" style="stroke:#C82930;stroke-width:1.4322916666666667;" width="8.5938" x="551.4323" y="179.4589"/><text fill="#000000" font-family="sans-serif" font-size="20.0521" lengthAdjust="spacing" textLength="141.7969" x="568.6198" y="189.9101">int* tempSettingPtr</text><line style="stroke:#181818;stroke-width:0.7161458333333334;" x1="541.4063" x2="1147.2656" y1="200.6719" y2="200.6719"/><ellipse cx="555.7292" cy="221.8849" fill="#84BE84" rx="4.2969" ry="4.2969" style="stroke:#038048;stroke-width:1.4322916666666667;"/><text fill="#000000" font-family="sans-serif" font-size="20.0521" lengthAdjust="spacing" textLength="452.6042" x="568.6198" y="228.0393">Pantalla(TempHum* _tempHum, int* _tempSetting)</text><ellipse cx="555.7292" cy="248.5558" fill="#84BE84" rx="4.2969" ry="4.2969" style="stroke:#038048;stroke-width:1.4322916666666667;"/><text fill="#000000" font-family="sans-serif" font-size="20.0521" lengthAdjust="spacing" textLength="107.4219" x="568.6198" y="254.7101">void begin()</text><ellipse cx="555.7292" cy="275.2266" fill="#84BE84" rx="4.2969" ry="4.2969" style="stroke:#038048;stroke-width:1.4322916666666667;"/><text fill="#000000" font-family="sans-serif" font-size="20.0521" lengthAdjust="spacing" textLength="421.0938" x="568.6198" y="281.381">void update(string upperLine, string lowerLine)</text><ellipse cx="555.7292" cy="301.8974" fill="#84BE84" rx="4.2969" ry="4.2969" style="stroke:#038048;stroke-width:1.4322916666666667;"/><text fill="#000000" font-family="sans-serif" font-size="20.0521" lengthAdjust="spacing" textLength="571.4844" x="568.6198" y="308.0518">void update(string upperLine, string lowerLine, unsigned long t)</text><ellipse cx="555.7292" cy="328.5683" fill="#84BE84" rx="4.2969" ry="4.2969" style="stroke:#038048;stroke-width:1.4322916666666667;"/><text fill="#000000" font-family="sans-serif" font-size="20.0521" lengthAdjust="spacing" textLength="88.8021" x="568.6198" y="334.7226">void idle()</text><ellipse cx="555.7292" cy="355.2391" fill="#84BE84" rx="4.2969" ry="4.2969" style="stroke:#038048;stroke-width:1.4322916666666667;"/><text fill="#000000" font-family="sans-serif" font-size="20.0521" lengthAdjust="spacing" textLength="154.6875" x="568.6198" y="361.3935">void checkTime()</text></g><!--class Sensor--><g id="elem_Sensor"><rect codeLine="122" fill="#F1F1F1" height="282.1167" id="Sensor" rx="3.5807" ry="3.5807" style="stroke:#181818;stroke-width:0.7161458333333334;" width="597.2656" x="283.5938" y="853.6458"/><ellipse cx="543.9128" cy="876.5625" fill="#ADD1B2" rx="15.7552" ry="15.7552" style="stroke:#181818;stroke-width:1.4322916666666667;"/><path d="M547.8739,870.6543 Q548.0977,870.341 548.3663,870.1843 Q548.6348,870.0277 548.9482,870.0277 Q549.4853,870.0277 549.821,870.4081 Q550.1567,870.7662 550.1567,871.639 L550.1567,873.7203 Q550.1567,874.5931 549.821,874.9736 Q549.4853,875.354 548.9482,875.354 Q548.4558,875.354 548.1649,875.0631 Q547.8739,874.7945 547.7173,874.056 Q547.6501,873.5413 547.3816,873.2727 Q546.9116,872.7356 546.0388,872.4223 Q545.166,872.109 544.2708,872.109 Q543.1742,872.109 542.2567,872.5789 Q541.3615,873.0489 540.6453,874.1231 Q539.9516,875.1973 539.9516,876.6744 L539.9516,878.241 Q539.9516,880.009 541.2272,881.1951 Q542.5028,882.3588 544.7856,882.3588 Q546.1283,882.3588 547.0683,882.0007 Q547.6278,881.7769 548.232,881.1503 Q548.6125,880.7699 548.8139,880.658 Q549.0377,880.5461 549.3286,880.5461 Q549.7986,880.5461 550.1567,880.9265 Q550.5371,881.2846 550.5371,881.7769 Q550.5371,882.2693 550.0448,882.8512 Q549.3286,883.6792 548.1873,884.1492 Q546.6431,884.7982 544.7856,884.7982 Q542.6147,884.7982 540.8915,883.903 Q539.4816,883.1868 538.4969,881.665 Q537.5122,880.1208 537.5122,878.2857 L537.5122,876.6296 Q537.5122,874.7274 538.385,873.0937 Q539.2802,871.4376 540.8468,870.5648 Q542.4133,869.6696 544.1813,869.6696 Q545.2332,869.6696 546.1507,869.9158 Q547.0907,870.1396 547.8739,870.6543 Z " fill="#000000"/><text fill="#000000" font-family="sans-serif" font-size="20.0521" lengthAdjust="spacing" textLength="64.4531" x="573.2747" y="884.8653">Sensor</text><line style="stroke:#181818;stroke-width:0.7161458333333334;" x1="285.026" x2="879.4271" y1="899.4792" y2="899.4792"/><rect fill="none" height="8.5938" style="stroke:#C82930;stroke-width:1.4322916666666667;" width="8.5938" x="295.0521" y="916.3953"/><text fill="#000000" font-family="sans-serif" font-size="20.0521" lengthAdjust="spacing" textLength="97.3958" x="312.2396" y="926.8466">CRGB* led</text><rect fill="none" height="8.5938" style="stroke:#C82930;stroke-width:1.4322916666666667;" width="8.5938" x="295.0521" y="943.0662"/><text fill="#000000" font-family="sans-serif" font-size="20.0521" lengthAdjust="spacing" textLength="118.8802" x="312.2396" y="953.5174">Range range</text><ellipse cx="299.349" cy="974.0339" fill="none" rx="4.2969" ry="4.2969" style="stroke:#038048;stroke-width:1.4322916666666667;"/><text fill="#000000" font-family="sans-serif" font-size="20.0521" lengthAdjust="spacing" textLength="116.0156" x="312.2396" y="980.1882">double value</text><line style="stroke:#181818;stroke-width:0.7161458333333334;" x1="285.026" x2="879.4271" y1="990.95" y2="990.95"/><polygon fill="#FFFF44" points="299.349,1005.0016,305.0781,1010.7307,299.349,1016.4599,293.6198,1010.7307" style="stroke:#B38D22;stroke-width:1.4322916666666667;"/><text fill="#000000" font-family="sans-serif" font-size="20.0521" lengthAdjust="spacing" textLength="560.026" x="312.2396" y="1018.3174">bool process(double _value, CRGB::HTMLColorCode colors[])</text><ellipse cx="299.349" cy="1038.8339" fill="#84BE84" rx="4.2969" ry="4.2969" style="stroke:#038048;stroke-width:1.4322916666666667;"/><text fill="#000000" font-family="sans-serif" font-size="20.0521" lengthAdjust="spacing" textLength="329.4271" x="312.2396" y="1044.9883">Sensor(CRGB* _led, Range _range)</text><ellipse cx="299.349" cy="1065.5047" fill="#84BE84" rx="4.2969" ry="4.2969" style="stroke:#038048;stroke-width:1.4322916666666667;"/><text fill="#000000" font-family="sans-serif" font-size="20.0521" font-style="italic" lengthAdjust="spacing" textLength="105.9896" x="312.2396" y="1071.6591">void begin()</text><ellipse cx="299.349" cy="1092.1755" fill="#84BE84" rx="4.2969" ry="4.2969" style="stroke:#038048;stroke-width:1.4322916666666667;"/><text fill="#000000" font-family="sans-serif" font-size="20.0521" font-style="italic" lengthAdjust="spacing" textLength="97.3958" x="312.2396" y="1098.3299">void read()</text><ellipse cx="299.349" cy="1118.8464" fill="#84BE84" rx="4.2969" ry="4.2969" style="stroke:#038048;stroke-width:1.4322916666666667;"/><text fill="#000000" font-family="sans-serif" font-size="20.0521" lengthAdjust="spacing" text-decoration="underline" textLength="254.9479" x="312.2396" y="1125.0008">DHT initDHT(unsigned char)</text></g><!--class Humitat--><g id="elem_Humitat"><rect codeLine="133" fill="#F1F1F1" height="228.775" id="Humitat" rx="3.5807" ry="3.5807" style="stroke:#181818;stroke-width:0.7161458333333334;" width="332.2917" x="678.1901" y="498.4375"/><ellipse cx="804.5898" cy="521.3542" fill="#ADD1B2" rx="15.7552" ry="15.7552" style="stroke:#181818;stroke-width:1.4322916666666667;"/><path d="M808.551,515.446 Q808.7748,515.1326 809.0434,514.976 Q809.3119,514.8193 809.6252,514.8193 Q810.1624,514.8193 810.498,515.1998 Q810.8337,515.5579 810.8337,516.4307 L810.8337,518.512 Q810.8337,519.3848 810.498,519.7652 Q810.1624,520.1457 809.6252,520.1457 Q809.1329,520.1457 808.842,519.8547 Q808.551,519.5862 808.3944,518.8477 Q808.3272,518.3329 808.0587,518.0644 Q807.5887,517.5273 806.7159,517.2139 Q805.8431,516.9006 804.9479,516.9006 Q803.8513,516.9006 802.9338,517.3706 Q802.0386,517.8406 801.3224,518.9148 Q800.6287,519.989 800.6287,521.4661 L800.6287,523.0326 Q800.6287,524.8006 801.9043,525.9867 Q803.1799,527.1505 805.4626,527.1505 Q806.8054,527.1505 807.7454,526.7924 Q808.3049,526.5686 808.9091,525.942 Q809.2896,525.5615 809.491,525.4496 Q809.7148,525.3377 810.0057,525.3377 Q810.4757,525.3377 810.8337,525.7182 Q811.2142,526.0763 811.2142,526.5686 Q811.2142,527.061 810.7218,527.6428 Q810.0057,528.4709 808.8643,528.9408 Q807.3201,529.5898 805.4626,529.5898 Q803.2918,529.5898 801.5686,528.6947 Q800.1587,527.9785 799.174,526.4567 Q798.1893,524.9125 798.1893,523.0774 L798.1893,521.4213 Q798.1893,519.519 799.0621,517.8853 Q799.9573,516.2292 801.5238,515.3564 Q803.0904,514.4613 804.8584,514.4613 Q805.9102,514.4613 806.8278,514.7074 Q807.7677,514.9312 808.551,515.446 Z " fill="#000000"/><text fill="#000000" font-family="sans-serif" font-size="20.0521" lengthAdjust="spacing" textLength="67.3177" x="833.9518" y="529.657">Humitat</text><line style="stroke:#181818;stroke-width:0.7161458333333334;" x1="679.6224" x2="1009.0495" y1="544.2708" y2="544.2708"/><rect fill="none" height="8.5938" style="stroke:#C82930;stroke-width:1.4322916666666667;" width="8.5938" x="689.6484" y="561.187"/><text fill="#000000" font-family="sans-serif" font-size="20.0521" lengthAdjust="spacing" text-decoration="underline" textLength="187.6302" x="706.8359" y="571.6382">const int rangesList[]</text><rect fill="none" height="8.5938" style="stroke:#C82930;stroke-width:1.4322916666666667;" width="8.5938" x="689.6484" y="587.8578"/><text fill="#000000" font-family="sans-serif" font-size="20.0521" lengthAdjust="spacing" text-decoration="underline" textLength="290.7552" x="706.8359" y="598.3091">CRGB::HTMLColorCode colors[]</text><rect fill="none" height="8.5938" style="stroke:#C82930;stroke-width:1.4322916666666667;" width="8.5938" x="689.6484" y="614.5287"/><text fill="#000000" font-family="sans-serif" font-size="20.0521" lengthAdjust="spacing" textLength="81.6406" x="706.8359" y="624.9799">DHT* dht</text><line style="stroke:#181818;stroke-width:0.7161458333333334;" x1="679.6224" x2="1009.0495" y1="635.7417" y2="635.7417"/><ellipse cx="693.9453" cy="656.9547" fill="#84BE84" rx="4.2969" ry="4.2969" style="stroke:#038048;stroke-width:1.4322916666666667;"/><text fill="#000000" font-family="sans-serif" font-size="20.0521" lengthAdjust="spacing" textLength="295.0521" x="706.8359" y="663.1091">Humitat(DHT* _dht, CRGB* _led)</text><ellipse cx="693.9453" cy="683.6255" fill="#84BE84" rx="4.2969" ry="4.2969" style="stroke:#038048;stroke-width:1.4322916666666667;"/><text fill="#000000" font-family="sans-serif" font-size="20.0521" lengthAdjust="spacing" textLength="107.4219" x="706.8359" y="689.7799">void begin()</text><ellipse cx="693.9453" cy="710.2964" fill="#84BE84" rx="4.2969" ry="4.2969" style="stroke:#038048;stroke-width:1.4322916666666667;"/><text fill="#000000" font-family="sans-serif" font-size="20.0521" lengthAdjust="spacing" textLength="98.8281" x="706.8359" y="716.4508">void read()</text></g><!--class Temperatura--><g id="elem_Temperatura"><rect codeLine="142" fill="#F1F1F1" height="255.4459" id="Temperatura" rx="3.5807" ry="3.5807" style="stroke:#181818;stroke-width:0.7161458333333334;" width="617.3177" x="10.026" y="485.5469"/><ellipse cx="253.8737" cy="508.4635" fill="#ADD1B2" rx="15.7552" ry="15.7552" style="stroke:#181818;stroke-width:1.4322916666666667;"/><path d="M257.8349,502.5553 Q258.0587,502.242 258.3272,502.0854 Q258.5958,501.9287 258.9091,501.9287 Q259.4462,501.9287 259.7819,502.3092 Q260.1176,502.6672 260.1176,503.54 L260.1176,505.6213 Q260.1176,506.4941 259.7819,506.8746 Q259.4462,507.255 258.9091,507.255 Q258.4167,507.255 258.1258,506.9641 Q257.8349,506.6956 257.6782,505.957 Q257.6111,505.4423 257.3425,505.1737 Q256.8726,504.6366 255.9998,504.3233 Q255.127,504.01 254.2318,504.01 Q253.1352,504.01 252.2176,504.48 Q251.3224,504.95 250.6063,506.0242 Q249.9125,507.0984 249.9125,508.5754 L249.9125,510.142 Q249.9125,511.91 251.1882,513.0961 Q252.4638,514.2598 254.7465,514.2598 Q256.0893,514.2598 257.0292,513.9018 Q257.5887,513.678 258.193,513.0514 Q258.5734,512.6709 258.7748,512.559 Q258.9986,512.4471 259.2896,512.4471 Q259.7595,512.4471 260.1176,512.8276 Q260.498,513.1856 260.498,513.678 Q260.498,514.1703 260.0057,514.7522 Q259.2896,515.5802 258.1482,516.0502 Q256.604,516.6992 254.7465,516.6992 Q252.5757,516.6992 250.8525,515.804 Q249.4425,515.0879 248.4578,513.5661 Q247.4731,512.0219 247.4731,510.1868 L247.4731,508.5307 Q247.4731,506.6284 248.3459,504.9947 Q249.2411,503.3386 250.8077,502.4658 Q252.3743,501.5706 254.1423,501.5706 Q255.1941,501.5706 256.1117,501.8168 Q257.0516,502.0406 257.8349,502.5553 Z " fill="#000000"/><text fill="#000000" font-family="sans-serif" font-size="20.0521" lengthAdjust="spacing" textLength="117.4479" x="283.2357" y="516.7664">Temperatura</text><line style="stroke:#181818;stroke-width:0.7161458333333334;" x1="11.4583" x2="625.9115" y1="531.3802" y2="531.3802"/><rect fill="none" height="8.5938" style="stroke:#C82930;stroke-width:1.4322916666666667;" width="8.5938" x="21.4844" y="548.2964"/><text fill="#000000" font-family="sans-serif" font-size="20.0521" lengthAdjust="spacing" text-decoration="underline" textLength="187.6302" x="38.6719" y="558.7476">const int rangesList[]</text><rect fill="none" height="8.5938" style="stroke:#C82930;stroke-width:1.4322916666666667;" width="8.5938" x="21.4844" y="574.9672"/><text fill="#000000" font-family="sans-serif" font-size="20.0521" lengthAdjust="spacing" text-decoration="underline" textLength="290.7552" x="38.6719" y="585.4184">CRGB::HTMLColorCode colors[]</text><rect fill="none" height="8.5938" style="stroke:#C82930;stroke-width:1.4322916666666667;" width="8.5938" x="21.4844" y="601.638"/><text fill="#000000" font-family="sans-serif" font-size="20.0521" lengthAdjust="spacing" textLength="81.6406" x="38.6719" y="612.0893">DHT* dht</text><rect fill="none" height="8.5938" style="stroke:#C82930;stroke-width:1.4322916666666667;" width="8.5938" x="21.4844" y="628.3089"/><text fill="#000000" font-family="sans-serif" font-size="20.0521" lengthAdjust="spacing" textLength="144.6615" x="38.6719" y="638.7601">CRB* ledSetting</text><line style="stroke:#181818;stroke-width:0.7161458333333334;" x1="11.4583" x2="625.9115" y1="649.5219" y2="649.5219"/><ellipse cx="25.7813" cy="670.7349" fill="#84BE84" rx="4.2969" ry="4.2969" style="stroke:#038048;stroke-width:1.4322916666666667;"/><text fill="#000000" font-family="sans-serif" font-size="20.0521" lengthAdjust="spacing" textLength="580.0781" x="38.6719" y="676.8893">Temperatura(DHT* _dht, CRGB* _ledTemp, CRGB* _ledSetting)</text><ellipse cx="25.7813" cy="697.4058" fill="#84BE84" rx="4.2969" ry="4.2969" style="stroke:#038048;stroke-width:1.4322916666666667;"/><text fill="#000000" font-family="sans-serif" font-size="20.0521" lengthAdjust="spacing" textLength="107.4219" x="38.6719" y="703.5601">void begin()</text><ellipse cx="25.7813" cy="724.0766" fill="#84BE84" rx="4.2969" ry="4.2969" style="stroke:#038048;stroke-width:1.4322916666666667;"/><text fill="#000000" font-family="sans-serif" font-size="20.0521" lengthAdjust="spacing" textLength="98.8281" x="38.6719" y="730.231">void read()</text></g><!--reverse link CRGB to HTMLColorCode--><g id="link_CRGB_HTMLColorCode"><path codeLine="79" d="M1486.3607,1050.2852 C1486.3607,1113.1628 1486.3607,1227.4453 1486.3607,1290.2083 " fill="none" id="CRGB-backto-HTMLColorCode" style="stroke:#181818;stroke-width:1.4322916666666667;"/><ellipse cx="1486.3607" cy="1038.8268" fill="#FFFFFF" rx="11.4583" ry="11.4583" style="stroke:#181818;stroke-width:1.4322916666666667;"/><line style="stroke:#181818;stroke-width:1.4322916666666667;" x1="1486.3607" x2="1486.3607" y1="1050.2852" y2="1027.3685"/><line style="stroke:#181818;stroke-width:1.4322916666666667;" x1="1474.9023" x2="1497.819" y1="1038.8268" y2="1038.8268"/></g><!--reverse link EntradaAnal?gica to Pin--><g id="link_EntradaAnal&#242;gica_Pin"><path codeLine="152" d="M2365.4297,699.7891 C2365.4297,789.737 2365.4297,921.6797 2365.4297,921.6797 C2365.4297,921.6797 2520.6042,921.6797 2616.0807,921.6797 " fill="none" id="EntradaAnal&#242;gica-backto-Pin" style="stroke:#181818;stroke-width:1.4322916666666667;"/><polygon fill="none" points="2365.4297,674.0078,2356.8359,699.7891,2374.0234,699.7891,2365.4297,674.0078" style="stroke:#181818;stroke-width:1.4322916666666667;"/><text fill="#000000" font-family="sans-serif" font-size="18.6198" lengthAdjust="spacing" textLength="48.6979" x="2556.1214" y="907.5536">public</text></g><!--reverse link SortidaAnal?gica to Pin--><g id="link_SortidaAnal&#242;gica_Pin"><path codeLine="153" d="M2664.7786,713.3099 C2664.7786,776.2161 2664.7786,840.6406 2664.7786,907.0273 " fill="none" id="SortidaAnal&#242;gica-backto-Pin" style="stroke:#181818;stroke-width:1.4322916666666667;"/><polygon fill="none" points="2664.7786,687.5286,2656.1849,713.3099,2673.3724,713.3099,2664.7786,687.5286" style="stroke:#181818;stroke-width:1.4322916666666667;"/><text fill="#000000" font-family="sans-serif" font-size="18.6198" lengthAdjust="spacing" textLength="48.6979" x="2610.45" y="891.2071">public</text></g><!--link Pin to EntradaDigital--><g id="link_Pin_EntradaDigital"><path codeLine="154" d="M2689.1276,1082.1966 C2689.1276,1133.8164 2689.1276,1172.6888 2689.1276,1221.9596 " fill="none" id="Pin-to-EntradaDigital" style="stroke:#181818;stroke-width:1.4322916666666667;"/><polygon fill="none" points="2689.1276,1247.7409,2697.7214,1221.9596,2680.5339,1221.9596,2689.1276,1247.7409" style="stroke:#181818;stroke-width:1.4322916666666667;"/><text fill="#000000" font-family="sans-serif" font-size="18.6198" lengthAdjust="spacing" textLength="48.6979" x="2637.4622" y="1114.4166">public</text></g><!--reverse link SortidaDigital to Pin--><g id="link_SortidaDigital_Pin"><path codeLine="155" d="M2882.3008,754.1016 C2787.0391,754.1016 2713.4766,754.1016 2713.4766,754.1016 C2713.4766,754.1016 2713.4766,838.3776 2713.4766,907.1706 " fill="none" id="SortidaDigital-backto-Pin" style="stroke:#181818;stroke-width:1.4322916666666667;"/><polygon fill="none" points="2908.082,754.1016,2882.3008,745.5078,2882.3008,762.6953,2908.082,754.1016" style="stroke:#181818;stroke-width:1.4322916666666667;"/><text fill="#000000" font-family="sans-serif" font-size="18.6198" lengthAdjust="spacing" textLength="48.6979" x="2664.7786" y="891.3669">public</text></g><!--reverse link Joystick to EntradaAnal?gica--><g id="link_Joystick_EntradaAnal&#242;gica"><path codeLine="157" d="M2147.7214,376.0052 C2147.7214,493.9688 2147.7214,613.737 2147.7214,613.737 C2147.7214,613.737 2204.7266,613.737 2260.3997,613.737 " fill="none" id="Joystick-backto-EntradaAnal&#242;gica" style="stroke:#181818;stroke-width:1.4322916666666667;"/><polygon fill="#181818" points="2147.7214,358.8177,2141.9922,367.4115,2147.7214,376.0052,2153.4505,367.4115,2147.7214,358.8177" style="stroke:#181818;stroke-width:1.4322916666666667;"/><text fill="#000000" font-family="sans-serif" font-size="18.6198" lengthAdjust="spacing" textLength="10.026" x="2147.1921" y="390.4313">2</text></g><!--reverse link Joystick to Vector--><g id="link_Joystick_Pos"><path codeLine="158" d="M2044.5964,376.3203 C2044.5964,444.3255 2044.5964,501.3737 2044.5964,551.8906 " fill="none" id="Joystick-backto-Vector" style="stroke:#181818;stroke-width:1.4322916666666667;"/><polygon fill="#181818" points="2044.5964,359.1328,2038.8672,367.7266,2044.5964,376.3203,2050.3255,367.7266,2044.5964,359.1328" style="stroke:#181818;stroke-width:1.4322916666666667;"/><text fill="#000000" font-family="sans-serif" font-size="18.6198" lengthAdjust="spacing" textLength="10.026" x="2037.4606" y="390.7666">2</text></g><!--link Joystick to Axis--><g id="link_Joystick_Axis"><path codeLine="159" d="M1944.3359,359.1615 C1944.3359,538.3555 1944.3359,812.7253 1944.3359,933.7682 " fill="none" id="Joystick-Axis" style="stroke:#181818;stroke-width:1.4322916666666667;"/></g><!--reverse link NeoPixel to CRGB--><g id="link_NeoPixel_CRGB"><path codeLine="161" d="M1515.7227,282.9063 C1515.7227,452.3464 1515.7227,843.7917 1515.7227,962.1133 " fill="none" id="NeoPixel-backto-CRGB" style="stroke:#181818;stroke-width:1.4322916666666667;"/><polygon fill="#181818" points="1515.7227,265.7188,1509.9935,274.3125,1515.7227,282.9063,1521.4518,274.3125,1515.7227,265.7188" style="stroke:#181818;stroke-width:1.4322916666666667;"/></g><!--link NeoPixel to FastLED--><g id="link_NeoPixel_FastLED"><path codeLine="162" d="M1620.638,265.7188 C1620.638,435.1589 1620.638,843.7917 1620.638,962.1133 " fill="none" id="NeoPixel-FastLED" style="stroke:#181818;stroke-width:1.4322916666666667;"/></g><!--reverse link Pantalla to LiquidCrystal_I2C--><g id="link_Pantalla_LiquidCrystal_I2C"><path codeLine="164" d="M1060.612,398.3203 C1060.612,425.5625 1060.612,427.6948 1060.612,454.4131 C1060.612,467.7722 1060.612,480.8326 1060.612,493.3607 C1060.612,499.6248 1060.612,505.7558 1060.612,511.7247 C1060.612,513.2169 1060.612,514.699 1060.612,516.1704 " fill="none" id="Pantalla-backto-LiquidCrystal_I2C" style="stroke:#181818;stroke-width:1.4322916666666667;"/><polygon fill="none" points="1060.612,372.5391,1052.0182,398.3203,1069.2057,398.3203,1060.612,372.5391" style="stroke:#181818;stroke-width:1.4322916666666667;"/><text fill="#000000" font-family="sans-serif" font-size="18.6198" lengthAdjust="spacing" textLength="52.9948" x="1047.1445" y="632.3156">private</text></g><!--reverse link Pantalla to Temperatura--><g id="link_Pantalla_Temperatura"><path codeLine="165" d="M583.6589,389.7266 C583.6589,427.6966 583.6589,449.7682 583.6589,485.2891 " fill="none" id="Pantalla-backto-Temperatura" style="stroke:#181818;stroke-width:1.4322916666666667;"/><polygon fill="#181818" points="583.6589,372.5391,577.9297,381.1328,583.6589,389.7266,589.388,381.1328,583.6589,372.5391" style="stroke:#181818;stroke-width:1.4322916666666667;"/></g><!--reverse link Pantalla to Humitat--><g id="link_Pantalla_Humitat"><path codeLine="166" d="M844.3359,389.7266 C844.3359,432.3802 844.3359,459.4935 844.3359,498.2656 " fill="none" id="Pantalla-backto-Humitat" style="stroke:#181818;stroke-width:1.4322916666666667;"/><polygon fill="#181818" points="844.3359,372.5391,838.6068,381.1328,844.3359,389.7266,850.0651,381.1328,844.3359,372.5391" style="stroke:#181818;stroke-width:1.4322916666666667;"/></g><!--reverse link Sensor to Range--><g id="link_Sensor_Range"><path codeLine="168" d="M632.3568,1153.3958 C632.3568,1182.1706 632.3568,1194.7174 632.3568,1221.7448 " fill="none" id="Sensor-backto-Range" style="stroke:#181818;stroke-width:1.4322916666666667;"/><polygon fill="#181818" points="632.3568,1136.2083,626.6276,1144.8021,632.3568,1153.3958,638.0859,1144.8021,632.3568,1136.2083" style="stroke:#181818;stroke-width:1.4322916666666667;"/></g><!--link Sensor to DHT--><g id="link_Sensor_DHT"><path codeLine="169" d="M322.9818,1135.8359 C322.9818,1217.3047 322.9818,1319.9857 322.9818,1404.2152 C322.9818,1425.2725 322.9818,1445.1767 322.9818,1463.3079 C322.9818,1463.8745 322.9818,1464.4394 322.9818,1465.0025 " fill="none" id="Sensor-DHT" style="stroke:#181818;stroke-width:1.4322916666666667;"/></g><!--reverse link Temperatura to Sensor--><g id="link_Temperatura_Sensor"><path codeLine="171" d="M455.4688,766.4336 C455.4688,802.6276 455.4688,816.4635 455.4688,853.4167 " fill="none" id="Temperatura-backto-Sensor" style="stroke:#181818;stroke-width:1.4322916666666667;"/><polygon fill="none" points="455.4688,740.6523,446.875,766.4336,464.0625,766.4336,455.4688,740.6523" style="stroke:#181818;stroke-width:1.4322916666666667;"/><text fill="#000000" font-family="sans-serif" font-size="18.6198" lengthAdjust="spacing" textLength="48.6979" x="395.2017" y="837.4269">public</text></g><!--reverse link Humitat to Sensor--><g id="link_Humitat_Sensor"><path codeLine="172" d="M779.5247,753.8438 C779.5247,793.3607 779.5247,812.2669 779.5247,853.6029 " fill="none" id="Humitat-backto-Sensor" style="stroke:#181818;stroke-width:1.4322916666666667;"/><polygon fill="none" points="779.5247,728.0625,770.931,753.8438,788.1185,753.8438,779.5247,728.0625" style="stroke:#181818;stroke-width:1.4322916666666667;"/><text fill="#000000" font-family="sans-serif" font-size="18.6198" lengthAdjust="spacing" textLength="48.6979" x="744.0682" y="837.6273">public</text></g><!--reverse link Temperatura to DHT--><g id="link_Temperatura_DHT"><path codeLine="174" d="M146.8099,757.8828 C146.8099,1017.056 146.8099,1563.3464 146.8099,1563.3464 C146.8099,1563.3464 189.4886,1563.3464 232.8333,1563.3464 C254.5057,1563.3464 276.3446,1563.3464 293.0983,1563.3464 C297.2868,1563.3464 301.1574,1563.3464 304.6282,1563.3464 C306.3636,1563.3464 307.999,1563.3464 309.5241,1563.3464 C309.9054,1563.3464 310.2798,1563.3464 310.6472,1563.3464 C310.8309,1563.3464 311.0128,1563.3464 311.1929,1563.3464 " fill="none" id="Temperatura-backto-DHT" style="stroke:#181818;stroke-width:1.4322916666666667;"/><polygon fill="#181818" points="146.8099,740.6953,141.0807,749.2891,146.8099,757.8828,152.5391,749.2891,146.8099,740.6953" style="stroke:#181818;stroke-width:1.4322916666666667;"/></g><!--reverse link Temperatura to CRGB--><g id="link_Temperatura_CRGB"><path codeLine="175" d="M644.6458,734.0495 C980.0313,734.0495 1451.3841,734.0495 1451.3841,734.0495 C1451.3841,734.0495 1451.3841,892.3607 1451.3841,962.2422 " fill="none" id="Temperatura-backto-CRGB" style="stroke:#181818;stroke-width:1.4322916666666667;"/><polygon fill="#181818" points="627.4583,734.0495,636.0521,739.7786,644.6458,734.0495,636.0521,728.3203,627.4583,734.0495" style="stroke:#181818;stroke-width:1.4322916666666667;"/></g><!--reverse link Humitat to DHT--><g id="link_Humitat_DHT"><path codeLine="176" d="M945.6706,744.8203 C945.6706,1008.9063 945.6706,1620.638 945.6706,1620.638 C945.6706,1620.638 789.9984,1620.638 634.3262,1620.638 C595.4081,1620.638 556.4901,1620.638 520.0044,1620.638 C518.8642,1620.638 517.7264,1620.638 516.5911,1620.638 " fill="none" id="Humitat-backto-DHT" style="stroke:#181818;stroke-width:1.4322916666666667;"/><polygon fill="#181818" points="945.6706,727.6328,939.9414,736.2266,945.6706,744.8203,951.3997,736.2266,945.6706,727.6328" style="stroke:#181818;stroke-width:1.4322916666666667;"/></g><!--reverse link Humitat to CRGB--><g id="link_Humitat_CRGB"><path codeLine="177" d="M1027.8698,708.2682 C1213.5807,708.2682 1471.207,708.2682 1471.207,708.2682 C1471.207,708.2682 1471.207,887.5052 1471.207,962.4284 " fill="none" id="Humitat-backto-CRGB" style="stroke:#181818;stroke-width:1.4322916666666667;"/><polygon fill="#181818" points="1010.6823,708.2682,1019.276,713.9974,1027.8698,708.2682,1019.276,702.5391,1010.6823,708.2682" style="stroke:#181818;stroke-width:1.4322916666666667;"/></g><!--SRC=[jLVDJYit55xZfx32eY4afKNg9a98ju6MMwKjkcG1GYWoCsPYuR6dOmyDb-Qb-WfziHx_p8mzCm5rqImI-plV-V7nERQZdfaeI4bod1OCVt_wmtT8DH1dWkhNWc9Pwer4tsoqBjJyvAJWHEWgvzycCZz9E55gbZAIWGf2YcgigD7NiiJpEKBaKUcI91fR9bvSN3EXvdFuVaCOFeSuaK9fp8J61HCMEyOW7Xja3T2HnzvgKply8bcA7sa6h5fgs2-4LnJj48fzNGfGIya5ovWc7B-XW-FOme5JBob9tQmIYcM2fYwgYYlwsV3sMVua2F_dxumbPDXuPCvxwTcwWJIp3wAqSnbDdfvYKUEBIv5X7JFt2c7VRBwfqcGVFCL3waQiPPPn6iHXK_PxfTzPvqSvY_p3nifo3por8UHC-07PMgSG4zKRMXhhK3OLLE2rL6UhS-pgxc25j_NWrGv0oVnGKUNuqvQfcdZhVkv2ablIB_9LQPOyUwRvp6mGAUpnLobe34ymX0H1NEjoR1qG-3eAE2P0u9tZGge6FiH1bKcJi8bfbDkF27SDuRW9jEcfMvSiCxoRHY4V1MgFKd9NhmFXXk8GDOk82kKSGxBqOaD4HjE0sFHzdPUkbrrt7mkIF9ECuf_0tlBo0f-TbJJHO9VJytDyU7bvQLW7RdDQ4jrgMWfWlEr0kc5fQo6d-ICj5Mgq5bz-_d5OnKe2lgsJgzMlouM4Abn8e0pgnPJ0W3LuF9l537G0YqO-cj-el6PRQa-3Ne_KG4cVIges7h9MELFw_i6O0cDrrYwkLdiovfmvURG2km23rs4ttVp5xARHTGMls5TgnhOaajU4srcmmwNXcmQsYkFsp5zRoVs3BqXZQEhChAsTvf21CbZI5yfj3OkZS6LBzaV5qaK9HKxu-lFfujrr3h7xg-wpUZcuXdkGS4vS6Zg7On-2asbbq1ND2meNP5L2esgO6F2gok7OXqHjgjmdrGblgDPCP2OBjR-niG0A4xpMRZHr_7MWSBJtKAsAb6WwXaCHQ323O9PmrK-nHxZyqo7rrVhVj0QkYS0CI-r54I39XYRFAvRJyBAueKB9qYNMLFG4SpWxOEBgpbVJeIkKefG9LMgSokgHKxospu2frPlFu_PBp4ZTFzXiE2TZPtyD3gRUlAj9ozdtw1WGjSy77uXxZXYckJvPihEjn0JJyDlUnSc6bC7IVIMujJUQRSFOsDJITtX0UM-zXWXE9pZTQ1EHTpAss1h0AMxJiBzqkc-Ne9J_ptXD3RWI2BeXy3sy34C8vnysHhkw_hlkx2yug4S5x2jBHkPvYlhlc3wdy_84GbKCcmae7G9gNXcZqn6UWBWNNPy2jsaBpW0mLoj2pNrYEFuEdCzDYbhHB1Jv0KBDMUS3BDaB70UZ_Z7PCesFO9DYWIz0X7od6ymsNmsOC61R4GfhBCwEOwAwOGQ5aVh4s-nYDW6rcPeKpYq1mLyWSpCqcQel10StoulXq5SigHt4g5z-3BfZASQQxOtXJibrZCV5DgWP5FIWybuv56iNaQg3s1TU3VqB]--></g></svg>