<?xml version="1.0" encoding="us-ascii" standalone="no"?><svg xmlns="http://www.w3.org/2000/svg" xmlns:xlink="http://www.w3.org/1999/xlink" contentStyleType="text/css" height="1385.92px" preserveAspectRatio="none" style="width:351px;height:1385px;background:#FFFFFF;" version="1.1" viewBox="0 0 351 1385" width="351.97px" zoomAndPan="magnify"><defs/><g><ellipse cx="168.2075" cy="12.2" fill="#222222" rx="6.1" ry="6.1" style="stroke:#222222;stroke-width:0.61;"/><rect fill="#F1F1F1" height="21.9362" rx="7.625" ry="7.625" style="stroke:#181818;stroke-width:0.305;" width="115.9" x="110.2575" y="30.5"/><text fill="#000000" font-family="sans-serif" font-size="7.32" lengthAdjust="spacing" textLength="103.7" x="116.3575" y="44.499">temp consigna estiu = 20-29&#186;C</text><rect fill="#F1F1F1" height="21.9362" rx="7.625" ry="7.625" style="stroke:#181818;stroke-width:0.305;" width="119.56" x="108.4275" y="64.6362"/><text fill="#000000" font-family="sans-serif" font-size="7.32" lengthAdjust="spacing" textLength="107.36" x="114.5275" y="78.6352">temp consigna hivern = 17-26&#186;C</text><rect fill="#F1F1F1" height="21.9362" rx="7.625" ry="7.625" style="stroke:#181818;stroke-width:0.305;" width="89.67" x="123.3725" y="98.7723"/><text fill="#000000" font-family="sans-serif" font-size="7.32" lengthAdjust="spacing" textLength="77.47" x="129.4725" y="112.7714">encendre pantalla LCD</text><rect fill="#F1F1F1" height="21.9362" rx="7.625" ry="7.625" style="stroke:#181818;stroke-width:0.305;" width="64.66" x="135.8775" y="132.9085"/><text fill="#000000" font-family="sans-serif" font-size="7.32" lengthAdjust="spacing" textLength="52.46" x="141.9775" y="146.9075">encendre LEDs</text><rect fill="#F1F1F1" height="21.9362" rx="7.625" ry="7.625" style="stroke:#181818;stroke-width:0.305;" width="112.85" x="111.7825" y="167.0447"/><text fill="#000000" font-family="sans-serif" font-size="7.32" lengthAdjust="spacing" textLength="100.65" x="117.8825" y="181.0437">encendre detector d'obstacles</text><rect fill="#F1F1F1" height="21.9362" rx="7.625" ry="7.625" style="stroke:#181818;stroke-width:0.305;" width="100.04" x="118.1875" y="201.1809"/><text fill="#000000" font-family="sans-serif" font-size="7.32" lengthAdjust="spacing" textLength="87.84" x="124.2875" y="215.1799">Llegir detector d'obstacles</text><rect fill="#F1F1F1" height="21.9362" rx="7.625" ry="7.625" style="stroke:#181818;stroke-width:0.305;" width="73.81" x="131.3025" y="235.317"/><text fill="#000000" font-family="sans-serif" font-size="7.32" lengthAdjust="spacing" textLength="61.61" x="137.4025" y="249.3161">Llegir temperatura</text><rect fill="#F1F1F1" height="21.9362" rx="7.625" ry="7.625" style="stroke:#181818;stroke-width:0.305;" width="57.95" x="139.2325" y="269.4532"/><text fill="#000000" font-family="sans-serif" font-size="7.32" lengthAdjust="spacing" textLength="45.75" x="145.3325" y="283.4522">Llegir humitat</text><rect fill="#F1F1F1" height="21.9362" rx="7.625" ry="7.625" style="stroke:#181818;stroke-width:0.305;" width="100.65" x="117.8825" y="303.5894"/><text fill="#000000" font-family="sans-serif" font-size="7.32" lengthAdjust="spacing" textLength="88.45" x="123.9825" y="317.5884">Llegir brillantor illuminaci&#243;</text><rect fill="#F1F1F1" height="21.9362" rx="7.625" ry="7.625" style="stroke:#181818;stroke-width:0.305;" width="229.36" x="53.5275" y="337.7255"/><text fill="#000000" font-family="sans-serif" font-size="7.32" lengthAdjust="spacing" textLength="217.16" x="59.6275" y="351.7246">mostrar temp consigna, temp actual, hum i brillantor a la pantalla</text><polygon fill="#F1F1F1" points="144.7225,398.7017,191.6925,398.7017,199.0125,406.0217,191.6925,413.3417,144.7225,413.3417,137.4025,406.0217,144.7225,398.7017" style="stroke:#181818;stroke-width:0.305;"/><text fill="#000000" font-family="sans-serif" font-size="6.71" lengthAdjust="spacing" textLength="46.97" x="144.7225" y="408.8001">35 &lt; hum &lt; 65 ?</text><text fill="#000000" font-family="sans-serif" font-size="6.71" lengthAdjust="spacing" textLength="5.49" x="131.9125" y="404.3377">S&#205;</text><text fill="#000000" font-family="sans-serif" font-size="6.71" lengthAdjust="spacing" textLength="9.15" x="199.0125" y="404.3377">NO</text><rect fill="#F1F1F1" height="21.9362" rx="7.625" ry="7.625" style="stroke:#181818;stroke-width:0.305;" width="54.9" x="103.8525" y="419.4417"/><text fill="#000000" font-family="sans-serif" font-size="7.32" lengthAdjust="spacing" textLength="42.7" x="109.9525" y="433.4407">LED 2 = verd</text><rect fill="#F1F1F1" height="21.9362" rx="7.625" ry="7.625" style="stroke:#181818;stroke-width:0.305;" width="65.27" x="172.4775" y="419.4417"/><text fill="#000000" font-family="sans-serif" font-size="7.32" lengthAdjust="spacing" textLength="53.07" x="178.5775" y="433.4407">LED 2 = vermell</text><polygon fill="#F1F1F1" points="168.2075,445.0379,175.5275,452.3579,168.2075,459.6779,160.8875,452.3579,168.2075,445.0379" style="stroke:#181818;stroke-width:0.305;"/><polygon fill="#F1F1F1" points="141.3675,471.8779,195.0475,471.8779,202.3675,479.1979,195.0475,486.5179,141.3675,486.5179,134.0475,479.1979,141.3675,471.8779" style="stroke:#181818;stroke-width:0.305;"/><text fill="#000000" font-family="sans-serif" font-size="6.71" lengthAdjust="spacing" textLength="53.68" x="141.3675" y="481.9763">temp = consigna ?</text><text fill="#000000" font-family="sans-serif" font-size="6.71" lengthAdjust="spacing" textLength="5.49" x="128.5575" y="477.5138">S&#205;</text><text fill="#000000" font-family="sans-serif" font-size="6.71" lengthAdjust="spacing" textLength="9.15" x="202.3675" y="477.5138">NO</text><rect fill="#F1F1F1" height="21.9362" rx="7.625" ry="7.625" style="stroke:#181818;stroke-width:0.305;" width="54.9" x="75.03" y="492.6179"/><text fill="#000000" font-family="sans-serif" font-size="7.32" lengthAdjust="spacing" textLength="42.7" x="81.13" y="506.6169">LED 1 = verd</text><rect fill="#F1F1F1" height="21.9362" rx="7.625" ry="7.625" style="stroke:#181818;stroke-width:0.305;" width="65.27" x="201.3" y="492.6179"/><text fill="#000000" font-family="sans-serif" font-size="7.32" lengthAdjust="spacing" textLength="53.07" x="207.4" y="506.6169">LED 1 = vermell</text><polygon fill="#F1F1F1" points="209.84,526.7541,258.03,526.7541,265.35,534.0741,258.03,541.3941,209.84,541.3941,202.52,534.0741,209.84,526.7541" style="stroke:#181818;stroke-width:0.305;"/><text fill="#000000" font-family="sans-serif" font-size="6.71" lengthAdjust="spacing" textLength="48.19" x="209.84" y="536.8524">temp &gt; consigna</text><text fill="#000000" font-family="sans-serif" font-size="6.71" lengthAdjust="spacing" textLength="5.49" x="197.03" y="532.39">S&#205;</text><text fill="#000000" font-family="sans-serif" font-size="6.71" lengthAdjust="spacing" textLength="9.15" x="265.35" y="532.39">NO</text><rect fill="#F1F1F1" height="21.9362" rx="7.625" ry="7.625" style="stroke:#181818;stroke-width:0.305;" width="55.51" x="158.905" y="547.4941"/><text fill="#000000" font-family="sans-serif" font-size="7.32" lengthAdjust="spacing" textLength="43.31" x="165.005" y="561.4931">LED 3 = blau</text><rect fill="#F1F1F1" height="21.9362" rx="7.625" ry="7.625" style="stroke:#181818;stroke-width:0.305;" width="76.86" x="148.23" y="590.7802"/><text fill="#000000" font-family="sans-serif" font-size="7.32" lengthAdjust="spacing" textLength="64.66" x="154.33" y="604.7793">encendre ventilaci&#243;</text><rect fill="#F1F1F1" height="21.9362" rx="7.625" ry="7.625" style="stroke:#181818;stroke-width:0.305;" width="65.27" x="248.575" y="577.5765"/><text fill="#000000" font-family="sans-serif" font-size="7.32" lengthAdjust="spacing" textLength="53.07" x="254.675" y="591.5755">LED 3 = vermell</text><rect fill="#F1F1F1" height="21.9362" rx="7.625" ry="7.625" style="stroke:#181818;stroke-width:0.305;" width="75.64" x="243.39" y="620.8626"/><text fill="#000000" font-family="sans-serif" font-size="7.32" lengthAdjust="spacing" textLength="63.44" x="249.49" y="634.8617">encendre calefaci&#243;</text><polygon fill="#F1F1F1" points="255.285,547.4941,307.135,547.4941,314.455,554.8141,307.135,562.1341,255.285,562.1341,247.965,554.8141,255.285,547.4941" style="stroke:#181818;stroke-width:0.305;"/><text fill="#000000" font-family="sans-serif" font-size="6.71" lengthAdjust="spacing" textLength="5.49" x="283.65" y="569.3748">S&#205;</text><text fill="#000000" font-family="sans-serif" font-size="6.71" lengthAdjust="spacing" textLength="51.85" x="255.285" y="557.5924">temp &lt;consigna ?</text><polygon fill="#F1F1F1" points="281.21,654.9988,288.53,662.3188,281.21,669.6388,273.89,662.3188,281.21,654.9988" style="stroke:#181818;stroke-width:0.305;"/><polygon fill="#F1F1F1" points="233.935,673.2988,241.255,680.6188,233.935,687.9388,226.615,680.6188,233.935,673.2988" style="stroke:#181818;stroke-width:0.305;"/><polygon fill="#F1F1F1" points="168.2075,691.5988,175.5275,698.9188,168.2075,706.2388,160.8875,698.9188,168.2075,691.5988" style="stroke:#181818;stroke-width:0.305;"/><polygon fill="#F1F1F1" points="141.0625,718.4388,195.3525,718.4388,202.6725,725.7588,195.3525,733.0788,141.0625,733.0788,133.7425,725.7588,141.0625,718.4388" style="stroke:#181818;stroke-width:0.305;"/><text fill="#000000" font-family="sans-serif" font-size="6.71" lengthAdjust="spacing" textLength="54.29" x="141.0625" y="728.5372">obstacle detectat?</text><text fill="#000000" font-family="sans-serif" font-size="6.71" lengthAdjust="spacing" textLength="5.49" x="128.2525" y="724.0748">S&#205;</text><text fill="#000000" font-family="sans-serif" font-size="6.71" lengthAdjust="spacing" textLength="9.15" x="202.6725" y="724.0748">NO</text><rect fill="#F1F1F1" height="21.9362" rx="7.625" ry="7.625" style="stroke:#181818;stroke-width:0.305;" width="128.71" x="32.4825" y="739.1788"/><text fill="#000000" font-family="sans-serif" font-size="7.32" lengthAdjust="spacing" textLength="116.51" x="38.5825" y="753.1778">LED 4 i LED 5 = vermell intermitent</text><rect fill="#F1F1F1" height="21.9362" rx="7.625" ry="7.625" style="stroke:#181818;stroke-width:0.305;" width="179.95" x="6.8625" y="773.315"/><text fill="#000000" font-family="sans-serif" font-size="7.32" lengthAdjust="spacing" textLength="167.75" x="12.9625" y="787.314">mostrar a la pantalla: ALARMA ACTIVADA: ALERTA</text><rect fill="#F1F1F1" height="21.9362" rx="7.625" ry="7.625" style="stroke:#181818;stroke-width:0.305;" width="81.13" x="56.2725" y="837.5336"/><text fill="#000000" font-family="sans-serif" font-size="7.32" lengthAdjust="spacing" textLength="68.93" x="62.3725" y="851.5326">LED 4 i LED 5 = OFF</text><polygon fill="#F1F1F1" points="68.4725,807.4512,125.2025,807.4512,132.5225,814.7712,125.2025,822.0912,68.4725,822.0912,61.1525,814.7712,68.4725,807.4512" style="stroke:#181818;stroke-width:0.305;"/><text fill="#000000" font-family="sans-serif" font-size="6.71" lengthAdjust="spacing" textLength="5.49" x="99.2775" y="829.3319">S&#205;</text><text fill="#000000" font-family="sans-serif" font-size="6.71" lengthAdjust="spacing" textLength="56.73" x="68.4725" y="817.5495">polsador 1 premut?</text><text fill="#000000" font-family="sans-serif" font-size="6.71" lengthAdjust="spacing" textLength="9.15" x="132.5225" y="813.0871">NO</text><polygon fill="#F1F1F1" points="96.8375,871.6697,104.1575,878.9897,96.8375,886.3097,89.5175,878.9897,96.8375,871.6697" style="stroke:#181818;stroke-width:0.305;"/><rect fill="#F1F1F1" height="21.9362" rx="7.625" ry="7.625" style="stroke:#181818;stroke-width:0.305;" width="81.13" x="199.0125" y="739.1788"/><text fill="#000000" font-family="sans-serif" font-size="7.32" lengthAdjust="spacing" textLength="68.93" x="205.1125" y="753.1778">LED 4 i LED 5 = OFF</text><polygon fill="#F1F1F1" points="168.2075,889.9697,175.5275,897.2897,168.2075,904.6097,160.8875,897.2897,168.2075,889.9697" style="stroke:#181818;stroke-width:0.305;"/><polygon fill="#F1F1F1" points="139.8425,916.8097,196.5725,916.8097,203.8925,924.1297,196.5725,931.4497,139.8425,931.4497,132.5225,924.1297,139.8425,916.8097" style="stroke:#181818;stroke-width:0.305;"/><text fill="#000000" font-family="sans-serif" font-size="6.71" lengthAdjust="spacing" textLength="56.73" x="139.8425" y="926.9081">polsador 2 premut?</text><text fill="#000000" font-family="sans-serif" font-size="6.71" lengthAdjust="spacing" textLength="5.49" x="127.0325" y="922.4457">S&#205;</text><text fill="#000000" font-family="sans-serif" font-size="6.71" lengthAdjust="spacing" textLength="9.15" x="203.8925" y="922.4457">NO</text><rect fill="#F1F1F1" height="21.9362" rx="7.625" ry="7.625" style="stroke:#181818;stroke-width:0.305;" width="109.8" x="36.6" y="937.5497"/><text fill="#000000" font-family="sans-serif" font-size="7.32" lengthAdjust="spacing" textLength="97.6" x="42.7" y="951.5488">LED 6, LED 7 i LED 8 = blanc</text><polygon fill="#F1F1F1" points="64.965,971.6859,118.035,971.6859,125.355,979.0059,118.035,986.3259,64.965,986.3259,57.645,979.0059,64.965,971.6859" style="stroke:#181818;stroke-width:0.305;"/><text fill="#000000" font-family="sans-serif" font-size="6.71" lengthAdjust="spacing" textLength="53.07" x="64.965" y="981.7843">X Joystick mogut?</text><text fill="#000000" font-family="sans-serif" font-size="6.71" lengthAdjust="spacing" textLength="28.67" x="28.975" y="977.3219">A la dreta</text><text fill="#000000" font-family="sans-serif" font-size="6.71" lengthAdjust="spacing" textLength="35.99" x="125.355" y="977.3219">A l'esquerra</text><rect fill="#F1F1F1" height="21.9362" rx="7.625" ry="7.625" style="stroke:#181818;stroke-width:0.305;" width="79.91" x="6.71" y="992.4259"/><text fill="#000000" font-family="sans-serif" font-size="7.32" lengthAdjust="spacing" textLength="67.71" x="12.81" y="1006.4249">augmentar brillantor</text><rect fill="#F1F1F1" height="21.9362" rx="7.625" ry="7.625" style="stroke:#181818;stroke-width:0.305;" width="75.03" x="98.82" y="992.4259"/><text fill="#000000" font-family="sans-serif" font-size="7.32" lengthAdjust="spacing" textLength="62.83" x="104.92" y="1006.4249">disminuir brillantor</text><polygon fill="#F1F1F1" points="91.5,1018.0221,98.82,1025.3421,91.5,1032.6621,84.18,1025.3421,91.5,1018.0221" style="stroke:#181818;stroke-width:0.305;"/><rect fill="#F1F1F1" height="21.9362" rx="7.625" ry="7.625" style="stroke:#181818;stroke-width:0.305;" width="105.53" x="192.15" y="937.5497"/><text fill="#000000" font-family="sans-serif" font-size="7.32" lengthAdjust="spacing" textLength="93.33" x="198.25" y="951.5488">LED 6, LED 7 i LED 8 = OFF</text><polygon fill="#F1F1F1" points="168.2075,1036.3221,175.5275,1043.6421,168.2075,1050.9621,160.8875,1043.6421,168.2075,1036.3221" style="stroke:#181818;stroke-width:0.305;"/><polygon fill="#F1F1F1" points="141.3675,1063.1621,195.0475,1063.1621,202.3675,1070.4821,195.0475,1077.8021,141.3675,1077.8021,134.0475,1070.4821,141.3675,1063.1621" style="stroke:#181818;stroke-width:0.305;"/><text fill="#000000" font-family="sans-serif" font-size="6.71" lengthAdjust="spacing" textLength="53.68" x="141.3675" y="1073.2604">Y Joystick mogut?</text><text fill="#000000" font-family="sans-serif" font-size="6.71" lengthAdjust="spacing" textLength="17.08" x="116.9675" y="1068.798">A dalt</text><text fill="#000000" font-family="sans-serif" font-size="6.71" lengthAdjust="spacing" textLength="17.08" x="202.3675" y="1068.798">Abaix</text><rect fill="#F1F1F1" height="21.9362" rx="7.625" ry="7.625" style="stroke:#181818;stroke-width:0.305;" width="96.38" x="66.9475" y="1083.9021"/><text fill="#000000" font-family="sans-serif" font-size="7.32" lengthAdjust="spacing" textLength="84.18" x="73.0475" y="1097.9011">augmentar temp cosigna</text><rect fill="#F1F1F1" height="21.9362" rx="7.625" ry="7.625" style="stroke:#181818;stroke-width:0.305;" width="91.5" x="175.5275" y="1083.9021"/><text fill="#000000" font-family="sans-serif" font-size="7.32" lengthAdjust="spacing" textLength="79.3" x="181.6275" y="1097.9011">disminuir temp cosigna</text><polygon fill="#F1F1F1" points="168.2075,1109.4983,175.5275,1116.8183,168.2075,1124.1383,160.8875,1116.8183,168.2075,1109.4983" style="stroke:#181818;stroke-width:0.305;"/><rect fill="#F1F1F1" height="21.9362" rx="7.625" ry="7.625" style="stroke:#181818;stroke-width:0.305;" width="78.69" x="128.8625" y="1166.4207"/><text fill="#000000" font-family="sans-serif" font-size="7.32" lengthAdjust="spacing" textLength="66.49" x="134.9625" y="1180.4197">temp consigna = 24</text><polygon fill="#F1F1F1" points="135.8775,1136.3383,200.5375,1136.3383,207.8575,1143.6583,200.5375,1150.9783,135.8775,1150.9783,128.5575,1143.6583,135.8775,1136.3383" style="stroke:#181818;stroke-width:0.305;"/><text fill="#000000" font-family="sans-serif" font-size="6.71" lengthAdjust="spacing" textLength="5.49" x="170.6475" y="1158.219">S&#205;</text><text fill="#000000" font-family="sans-serif" font-size="6.71" lengthAdjust="spacing" textLength="64.66" x="135.8775" y="1146.4366">Bot&#243; Joystick premut?</text><text fill="#000000" font-family="sans-serif" font-size="6.71" lengthAdjust="spacing" textLength="9.15" x="207.8575" y="1141.9742">NO</text><polygon fill="#F1F1F1" points="168.2075,1200.5568,175.5275,1207.8768,168.2075,1215.1968,160.8875,1207.8768,168.2075,1200.5568" style="stroke:#181818;stroke-width:0.305;"/><rect fill="#F1F1F1" height="21.9362" rx="7.625" ry="7.625" style="stroke:#181818;stroke-width:0.305;" width="62.22" x="137.0975" y="1257.4793"/><text fill="#000000" font-family="sans-serif" font-size="7.32" lengthAdjust="spacing" textLength="50.02" x="143.1975" y="1271.4783">canviar estaci&#243;</text><rect fill="#F1F1F1" height="21.9362" rx="7.625" ry="7.625" style="stroke:#181818;stroke-width:0.305;" width="107.36" x="114.5275" y="1300.7654"/><text fill="#000000" font-family="sans-serif" font-size="7.32" lengthAdjust="spacing" textLength="95.16" x="120.6275" y="1314.7645">mostrar estaci&#243; a la pantalla</text><polygon fill="#F1F1F1" points="138.0125,1227.3968,198.4025,1227.3968,205.7225,1234.7168,198.4025,1242.0368,138.0125,1242.0368,130.6925,1234.7168,138.0125,1227.3968" style="stroke:#181818;stroke-width:0.305;"/><text fill="#000000" font-family="sans-serif" font-size="6.71" lengthAdjust="spacing" textLength="5.49" x="170.6475" y="1249.2776">S&#205;</text><text fill="#000000" font-family="sans-serif" font-size="6.71" lengthAdjust="spacing" textLength="60.39" x="138.0125" y="1237.4952">polasador 1 premut?</text><text fill="#000000" font-family="sans-serif" font-size="6.71" lengthAdjust="spacing" textLength="9.15" x="205.7225" y="1233.0328">NO</text><polygon fill="#F1F1F1" points="168.2075,1334.9016,175.5275,1342.2216,168.2075,1349.5416,160.8875,1342.2216,168.2075,1334.9016" style="stroke:#181818;stroke-width:0.305;"/><polygon fill="#F1F1F1" points="168.2075,371.8617,175.5275,379.1817,168.2075,386.5017,160.8875,379.1817,168.2075,371.8617" style="stroke:#181818;stroke-width:0.305;"/><line style="stroke:#181818;stroke-width:0.61;" x1="168.2075" x2="168.2075" y1="18.3" y2="30.5"/><polygon fill="#181818" points="165.7675,24.4,168.2075,30.5,170.6475,24.4,168.2075,26.84" style="stroke:#181818;stroke-width:0.61;"/><line style="stroke:#181818;stroke-width:0.61;" x1="168.2075" x2="168.2075" y1="52.4362" y2="64.6362"/><polygon fill="#181818" points="165.7675,58.5362,168.2075,64.6362,170.6475,58.5362,168.2075,60.9762" style="stroke:#181818;stroke-width:0.61;"/><line style="stroke:#181818;stroke-width:0.61;" x1="168.2075" x2="168.2075" y1="86.5723" y2="98.7723"/><polygon fill="#181818" points="165.7675,92.6723,168.2075,98.7723,170.6475,92.6723,168.2075,95.1123" style="stroke:#181818;stroke-width:0.61;"/><line style="stroke:#181818;stroke-width:0.61;" x1="168.2075" x2="168.2075" y1="120.7085" y2="132.9085"/><polygon fill="#181818" points="165.7675,126.8085,168.2075,132.9085,170.6475,126.8085,168.2075,129.2485" style="stroke:#181818;stroke-width:0.61;"/><line style="stroke:#181818;stroke-width:0.61;" x1="168.2075" x2="168.2075" y1="154.8447" y2="167.0447"/><polygon fill="#181818" points="165.7675,160.9447,168.2075,167.0447,170.6475,160.9447,168.2075,163.3847" style="stroke:#181818;stroke-width:0.61;"/><line style="stroke:#181818;stroke-width:0.61;" x1="168.2075" x2="168.2075" y1="188.9809" y2="201.1809"/><polygon fill="#181818" points="165.7675,195.0809,168.2075,201.1809,170.6475,195.0809,168.2075,197.5209" style="stroke:#181818;stroke-width:0.61;"/><line style="stroke:#181818;stroke-width:0.61;" x1="168.2075" x2="168.2075" y1="223.117" y2="235.317"/><polygon fill="#181818" points="165.7675,229.217,168.2075,235.317,170.6475,229.217,168.2075,231.657" style="stroke:#181818;stroke-width:0.61;"/><line style="stroke:#181818;stroke-width:0.61;" x1="168.2075" x2="168.2075" y1="257.2532" y2="269.4532"/><polygon fill="#181818" points="165.7675,263.3532,168.2075,269.4532,170.6475,263.3532,168.2075,265.7932" style="stroke:#181818;stroke-width:0.61;"/><line style="stroke:#181818;stroke-width:0.61;" x1="168.2075" x2="168.2075" y1="291.3894" y2="303.5894"/><polygon fill="#181818" points="165.7675,297.4894,168.2075,303.5894,170.6475,297.4894,168.2075,299.9294" style="stroke:#181818;stroke-width:0.61;"/><line style="stroke:#181818;stroke-width:0.61;" x1="168.2075" x2="168.2075" y1="325.5255" y2="337.7255"/><polygon fill="#181818" points="165.7675,331.6255,168.2075,337.7255,170.6475,331.6255,168.2075,334.0655" style="stroke:#181818;stroke-width:0.61;"/><line style="stroke:#181818;stroke-width:0.61;" x1="137.4025" x2="131.3025" y1="406.0217" y2="406.0217"/><line style="stroke:#181818;stroke-width:0.61;" x1="131.3025" x2="131.3025" y1="406.0217" y2="419.4417"/><polygon fill="#181818" points="128.8625,413.3417,131.3025,419.4417,133.7425,413.3417,131.3025,415.7817" style="stroke:#181818;stroke-width:0.61;"/><line style="stroke:#181818;stroke-width:0.61;" x1="199.0125" x2="205.1125" y1="406.0217" y2="406.0217"/><line style="stroke:#181818;stroke-width:0.61;" x1="205.1125" x2="205.1125" y1="406.0217" y2="419.4417"/><polygon fill="#181818" points="202.6725,413.3417,205.1125,419.4417,207.5525,413.3417,205.1125,415.7817" style="stroke:#181818;stroke-width:0.61;"/><line style="stroke:#181818;stroke-width:0.61;" x1="131.3025" x2="131.3025" y1="441.3779" y2="452.3579"/><line style="stroke:#181818;stroke-width:0.61;" x1="131.3025" x2="160.8875" y1="452.3579" y2="452.3579"/><polygon fill="#181818" points="154.7875,449.9179,160.8875,452.3579,154.7875,454.7979,157.2275,452.3579" style="stroke:#181818;stroke-width:0.61;"/><line style="stroke:#181818;stroke-width:0.61;" x1="205.1125" x2="205.1125" y1="441.3779" y2="452.3579"/><line style="stroke:#181818;stroke-width:0.61;" x1="205.1125" x2="175.5275" y1="452.3579" y2="452.3579"/><polygon fill="#181818" points="181.6275,449.9179,175.5275,452.3579,181.6275,454.7979,179.1875,452.3579" style="stroke:#181818;stroke-width:0.61;"/><line style="stroke:#181818;stroke-width:0.61;" x1="186.66" x2="186.66" y1="569.4302" y2="590.7802"/><polygon fill="#181818" points="184.22,584.6802,186.66,590.7802,189.1,584.6802,186.66,587.1202" style="stroke:#181818;stroke-width:0.61;"/><line style="stroke:#181818;stroke-width:0.61;" x1="281.21" x2="281.21" y1="599.5126" y2="620.8626"/><polygon fill="#181818" points="278.77,614.7626,281.21,620.8626,283.65,614.7626,281.21,617.2026" style="stroke:#181818;stroke-width:0.61;"/><line style="stroke:#181818;stroke-width:0.61;" x1="281.21" x2="281.21" y1="562.1341" y2="577.5765"/><polygon fill="#181818" points="278.77,571.4765,281.21,577.5765,283.65,571.4765,281.21,573.9165" style="stroke:#181818;stroke-width:0.61;"/><line style="stroke:#181818;stroke-width:0.61;" x1="314.455" x2="325.13" y1="554.8141" y2="554.8141"/><polygon fill="#181818" points="322.69,604.0876,325.13,610.1876,327.57,604.0876,325.13,606.5276" style="stroke:#181818;stroke-width:0.61;"/><line style="stroke:#181818;stroke-width:0.61;" x1="325.13" x2="325.13" y1="554.8141" y2="662.3188"/><line style="stroke:#181818;stroke-width:0.61;" x1="325.13" x2="288.53" y1="662.3188" y2="662.3188"/><polygon fill="#181818" points="294.63,659.8788,288.53,662.3188,294.63,664.7588,292.19,662.3188" style="stroke:#181818;stroke-width:0.61;"/><line style="stroke:#181818;stroke-width:0.61;" x1="281.21" x2="281.21" y1="642.7988" y2="654.9988"/><polygon fill="#181818" points="278.77,648.8988,281.21,654.9988,283.65,648.8988,281.21,651.3388" style="stroke:#181818;stroke-width:0.61;"/><line style="stroke:#181818;stroke-width:0.61;" x1="202.52" x2="186.66" y1="534.0741" y2="534.0741"/><line style="stroke:#181818;stroke-width:0.61;" x1="186.66" x2="186.66" y1="534.0741" y2="547.4941"/><polygon fill="#181818" points="184.22,541.3941,186.66,547.4941,189.1,541.3941,186.66,543.8341" style="stroke:#181818;stroke-width:0.61;"/><line style="stroke:#181818;stroke-width:0.61;" x1="265.35" x2="281.21" y1="534.0741" y2="534.0741"/><line style="stroke:#181818;stroke-width:0.61;" x1="281.21" x2="281.21" y1="534.0741" y2="547.4941"/><polygon fill="#181818" points="278.77,541.3941,281.21,547.4941,283.65,541.3941,281.21,543.8341" style="stroke:#181818;stroke-width:0.61;"/><line style="stroke:#181818;stroke-width:0.61;" x1="186.66" x2="186.66" y1="612.7164" y2="680.6188"/><line style="stroke:#181818;stroke-width:0.61;" x1="186.66" x2="226.615" y1="680.6188" y2="680.6188"/><polygon fill="#181818" points="220.515,678.1788,226.615,680.6188,220.515,683.0588,222.955,680.6188" style="stroke:#181818;stroke-width:0.61;"/><line style="stroke:#181818;stroke-width:0.61;" x1="281.21" x2="281.21" y1="669.6388" y2="680.6188"/><line style="stroke:#181818;stroke-width:0.61;" x1="281.21" x2="241.255" y1="680.6188" y2="680.6188"/><polygon fill="#181818" points="247.355,678.1788,241.255,680.6188,247.355,683.0588,244.915,680.6188" style="stroke:#181818;stroke-width:0.61;"/><line style="stroke:#181818;stroke-width:0.61;" x1="233.935" x2="233.935" y1="514.5541" y2="526.7541"/><polygon fill="#181818" points="231.495,520.6541,233.935,526.7541,236.375,520.6541,233.935,523.0941" style="stroke:#181818;stroke-width:0.61;"/><line style="stroke:#181818;stroke-width:0.61;" x1="134.0475" x2="102.48" y1="479.1979" y2="479.1979"/><line style="stroke:#181818;stroke-width:0.61;" x1="102.48" x2="102.48" y1="479.1979" y2="492.6179"/><polygon fill="#181818" points="100.04,486.5179,102.48,492.6179,104.92,486.5179,102.48,488.9579" style="stroke:#181818;stroke-width:0.61;"/><line style="stroke:#181818;stroke-width:0.61;" x1="202.3675" x2="233.935" y1="479.1979" y2="479.1979"/><line style="stroke:#181818;stroke-width:0.61;" x1="233.935" x2="233.935" y1="479.1979" y2="492.6179"/><polygon fill="#181818" points="231.495,486.5179,233.935,492.6179,236.375,486.5179,233.935,488.9579" style="stroke:#181818;stroke-width:0.61;"/><line style="stroke:#181818;stroke-width:0.61;" x1="102.48" x2="102.48" y1="514.5541" y2="698.9188"/><line style="stroke:#181818;stroke-width:0.61;" x1="102.48" x2="160.8875" y1="698.9188" y2="698.9188"/><polygon fill="#181818" points="154.7875,696.4788,160.8875,698.9188,154.7875,701.3588,157.2275,698.9188" style="stroke:#181818;stroke-width:0.61;"/><line style="stroke:#181818;stroke-width:0.61;" x1="233.935" x2="233.935" y1="687.9388" y2="698.9188"/><line style="stroke:#181818;stroke-width:0.61;" x1="233.935" x2="175.5275" y1="698.9188" y2="698.9188"/><polygon fill="#181818" points="181.6275,696.4788,175.5275,698.9188,181.6275,701.3588,179.1875,698.9188" style="stroke:#181818;stroke-width:0.61;"/><line style="stroke:#181818;stroke-width:0.61;" x1="168.2075" x2="168.2075" y1="459.6779" y2="471.8779"/><polygon fill="#181818" points="165.7675,465.7779,168.2075,471.8779,170.6475,465.7779,168.2075,468.2179" style="stroke:#181818;stroke-width:0.61;"/><line style="stroke:#181818;stroke-width:0.61;" x1="96.8375" x2="96.8375" y1="761.115" y2="773.315"/><polygon fill="#181818" points="94.3975,767.215,96.8375,773.315,99.2775,767.215,96.8375,769.655" style="stroke:#181818;stroke-width:0.61;"/><line style="stroke:#181818;stroke-width:0.61;" x1="96.8375" x2="96.8375" y1="822.0912" y2="837.5336"/><polygon fill="#181818" points="94.3975,831.4336,96.8375,837.5336,99.2775,831.4336,96.8375,833.8736" style="stroke:#181818;stroke-width:0.61;"/><line style="stroke:#181818;stroke-width:0.61;" x1="132.5225" x2="143.5025" y1="814.7712" y2="814.7712"/><polygon fill="#181818" points="141.0625,842.4017,143.5025,848.5017,145.9425,842.4017,143.5025,844.8417" style="stroke:#181818;stroke-width:0.61;"/><line style="stroke:#181818;stroke-width:0.61;" x1="143.5025" x2="143.5025" y1="814.7712" y2="878.9897"/><line style="stroke:#181818;stroke-width:0.61;" x1="143.5025" x2="104.1575" y1="878.9897" y2="878.9897"/><polygon fill="#181818" points="110.2575,876.5497,104.1575,878.9897,110.2575,881.4297,107.8175,878.9897" style="stroke:#181818;stroke-width:0.61;"/><line style="stroke:#181818;stroke-width:0.61;" x1="96.8375" x2="96.8375" y1="859.4697" y2="871.6697"/><polygon fill="#181818" points="94.3975,865.5697,96.8375,871.6697,99.2775,865.5697,96.8375,868.0097" style="stroke:#181818;stroke-width:0.61;"/><line style="stroke:#181818;stroke-width:0.61;" x1="96.8375" x2="96.8375" y1="795.2512" y2="807.4512"/><polygon fill="#181818" points="94.3975,801.3512,96.8375,807.4512,99.2775,801.3512,96.8375,803.7912" style="stroke:#181818;stroke-width:0.61;"/><line style="stroke:#181818;stroke-width:0.61;" x1="133.7425" x2="96.8375" y1="725.7588" y2="725.7588"/><line style="stroke:#181818;stroke-width:0.61;" x1="96.8375" x2="96.8375" y1="725.7588" y2="739.1788"/><polygon fill="#181818" points="94.3975,733.0788,96.8375,739.1788,99.2775,733.0788,96.8375,735.5188" style="stroke:#181818;stroke-width:0.61;"/><line style="stroke:#181818;stroke-width:0.61;" x1="202.6725" x2="239.5775" y1="725.7588" y2="725.7588"/><line style="stroke:#181818;stroke-width:0.61;" x1="239.5775" x2="239.5775" y1="725.7588" y2="739.1788"/><polygon fill="#181818" points="237.1375,733.0788,239.5775,739.1788,242.0175,733.0788,239.5775,735.5188" style="stroke:#181818;stroke-width:0.61;"/><line style="stroke:#181818;stroke-width:0.61;" x1="96.8375" x2="96.8375" y1="886.3097" y2="897.2897"/><line style="stroke:#181818;stroke-width:0.61;" x1="96.8375" x2="160.8875" y1="897.2897" y2="897.2897"/><polygon fill="#181818" points="154.7875,894.8497,160.8875,897.2897,154.7875,899.7297,157.2275,897.2897" style="stroke:#181818;stroke-width:0.61;"/><line style="stroke:#181818;stroke-width:0.61;" x1="239.5775" x2="239.5775" y1="761.115" y2="897.2897"/><line style="stroke:#181818;stroke-width:0.61;" x1="239.5775" x2="175.5275" y1="897.2897" y2="897.2897"/><polygon fill="#181818" points="181.6275,894.8497,175.5275,897.2897,181.6275,899.7297,179.1875,897.2897" style="stroke:#181818;stroke-width:0.61;"/><line style="stroke:#181818;stroke-width:0.61;" x1="168.2075" x2="168.2075" y1="706.2388" y2="718.4388"/><polygon fill="#181818" points="165.7675,712.3388,168.2075,718.4388,170.6475,712.3388,168.2075,714.7788" style="stroke:#181818;stroke-width:0.61;"/><line style="stroke:#181818;stroke-width:0.61;" x1="57.645" x2="46.665" y1="979.0059" y2="979.0059"/><line style="stroke:#181818;stroke-width:0.61;" x1="46.665" x2="46.665" y1="979.0059" y2="992.4259"/><polygon fill="#181818" points="44.225,986.3259,46.665,992.4259,49.105,986.3259,46.665,988.7659" style="stroke:#181818;stroke-width:0.61;"/><line style="stroke:#181818;stroke-width:0.61;" x1="125.355" x2="136.335" y1="979.0059" y2="979.0059"/><line style="stroke:#181818;stroke-width:0.61;" x1="136.335" x2="136.335" y1="979.0059" y2="992.4259"/><polygon fill="#181818" points="133.895,986.3259,136.335,992.4259,138.775,986.3259,136.335,988.7659" style="stroke:#181818;stroke-width:0.61;"/><line style="stroke:#181818;stroke-width:0.61;" x1="46.665" x2="46.665" y1="1014.3621" y2="1025.3421"/><line style="stroke:#181818;stroke-width:0.61;" x1="46.665" x2="84.18" y1="1025.3421" y2="1025.3421"/><polygon fill="#181818" points="78.08,1022.9021,84.18,1025.3421,78.08,1027.7821,80.52,1025.3421" style="stroke:#181818;stroke-width:0.61;"/><line style="stroke:#181818;stroke-width:0.61;" x1="136.335" x2="136.335" y1="1014.3621" y2="1025.3421"/><line style="stroke:#181818;stroke-width:0.61;" x1="136.335" x2="98.82" y1="1025.3421" y2="1025.3421"/><polygon fill="#181818" points="104.92,1022.9021,98.82,1025.3421,104.92,1027.7821,102.48,1025.3421" style="stroke:#181818;stroke-width:0.61;"/><line style="stroke:#181818;stroke-width:0.61;" x1="91.5" x2="91.5" y1="959.4859" y2="971.6859"/><polygon fill="#181818" points="89.06,965.5859,91.5,971.6859,93.94,965.5859,91.5,968.0259" style="stroke:#181818;stroke-width:0.61;"/><line style="stroke:#181818;stroke-width:0.61;" x1="132.5225" x2="91.5" y1="924.1297" y2="924.1297"/><line style="stroke:#181818;stroke-width:0.61;" x1="91.5" x2="91.5" y1="924.1297" y2="937.5497"/><polygon fill="#181818" points="89.06,931.4497,91.5,937.5497,93.94,931.4497,91.5,933.8897" style="stroke:#181818;stroke-width:0.61;"/><line style="stroke:#181818;stroke-width:0.61;" x1="203.8925" x2="244.915" y1="924.1297" y2="924.1297"/><line style="stroke:#181818;stroke-width:0.61;" x1="244.915" x2="244.915" y1="924.1297" y2="937.5497"/><polygon fill="#181818" points="242.475,931.4497,244.915,937.5497,247.355,931.4497,244.915,933.8897" style="stroke:#181818;stroke-width:0.61;"/><line style="stroke:#181818;stroke-width:0.61;" x1="91.5" x2="91.5" y1="1032.6621" y2="1043.6421"/><line style="stroke:#181818;stroke-width:0.61;" x1="91.5" x2="160.8875" y1="1043.6421" y2="1043.6421"/><polygon fill="#181818" points="154.7875,1041.2021,160.8875,1043.6421,154.7875,1046.0821,157.2275,1043.6421" style="stroke:#181818;stroke-width:0.61;"/><line style="stroke:#181818;stroke-width:0.61;" x1="244.915" x2="244.915" y1="959.4859" y2="1043.6421"/><line style="stroke:#181818;stroke-width:0.61;" x1="244.915" x2="175.5275" y1="1043.6421" y2="1043.6421"/><polygon fill="#181818" points="181.6275,1041.2021,175.5275,1043.6421,181.6275,1046.0821,179.1875,1043.6421" style="stroke:#181818;stroke-width:0.61;"/><line style="stroke:#181818;stroke-width:0.61;" x1="168.2075" x2="168.2075" y1="904.6097" y2="916.8097"/><polygon fill="#181818" points="165.7675,910.7097,168.2075,916.8097,170.6475,910.7097,168.2075,913.1497" style="stroke:#181818;stroke-width:0.61;"/><line style="stroke:#181818;stroke-width:0.61;" x1="134.0475" x2="115.1375" y1="1070.4821" y2="1070.4821"/><line style="stroke:#181818;stroke-width:0.61;" x1="115.1375" x2="115.1375" y1="1070.4821" y2="1083.9021"/><polygon fill="#181818" points="112.6975,1077.8021,115.1375,1083.9021,117.5775,1077.8021,115.1375,1080.2421" style="stroke:#181818;stroke-width:0.61;"/><line style="stroke:#181818;stroke-width:0.61;" x1="202.3675" x2="221.2775" y1="1070.4821" y2="1070.4821"/><line style="stroke:#181818;stroke-width:0.61;" x1="221.2775" x2="221.2775" y1="1070.4821" y2="1083.9021"/><polygon fill="#181818" points="218.8375,1077.8021,221.2775,1083.9021,223.7175,1077.8021,221.2775,1080.2421" style="stroke:#181818;stroke-width:0.61;"/><line style="stroke:#181818;stroke-width:0.61;" x1="115.1375" x2="115.1375" y1="1105.8383" y2="1116.8183"/><line style="stroke:#181818;stroke-width:0.61;" x1="115.1375" x2="160.8875" y1="1116.8183" y2="1116.8183"/><polygon fill="#181818" points="154.7875,1114.3783,160.8875,1116.8183,154.7875,1119.2583,157.2275,1116.8183" style="stroke:#181818;stroke-width:0.61;"/><line style="stroke:#181818;stroke-width:0.61;" x1="221.2775" x2="221.2775" y1="1105.8383" y2="1116.8183"/><line style="stroke:#181818;stroke-width:0.61;" x1="221.2775" x2="175.5275" y1="1116.8183" y2="1116.8183"/><polygon fill="#181818" points="181.6275,1114.3783,175.5275,1116.8183,181.6275,1119.2583,179.1875,1116.8183" style="stroke:#181818;stroke-width:0.61;"/><line style="stroke:#181818;stroke-width:0.61;" x1="168.2075" x2="168.2075" y1="1050.9621" y2="1063.1621"/><polygon fill="#181818" points="165.7675,1057.0621,168.2075,1063.1621,170.6475,1057.0621,168.2075,1059.5021" style="stroke:#181818;stroke-width:0.61;"/><line style="stroke:#181818;stroke-width:0.61;" x1="168.2075" x2="168.2075" y1="1150.9783" y2="1166.4207"/><polygon fill="#181818" points="165.7675,1160.3207,168.2075,1166.4207,170.6475,1160.3207,168.2075,1162.7607" style="stroke:#181818;stroke-width:0.61;"/><line style="stroke:#181818;stroke-width:0.61;" x1="207.8575" x2="215.1775" y1="1143.6583" y2="1143.6583"/><polygon fill="#181818" points="212.7375,1171.2888,215.1775,1177.3888,217.6175,1171.2888,215.1775,1173.7288" style="stroke:#181818;stroke-width:0.61;"/><line style="stroke:#181818;stroke-width:0.61;" x1="215.1775" x2="215.1775" y1="1143.6583" y2="1207.8768"/><line style="stroke:#181818;stroke-width:0.61;" x1="215.1775" x2="175.5275" y1="1207.8768" y2="1207.8768"/><polygon fill="#181818" points="181.6275,1205.4368,175.5275,1207.8768,181.6275,1210.3168,179.1875,1207.8768" style="stroke:#181818;stroke-width:0.61;"/><line style="stroke:#181818;stroke-width:0.61;" x1="168.2075" x2="168.2075" y1="1188.3568" y2="1200.5568"/><polygon fill="#181818" points="165.7675,1194.4568,168.2075,1200.5568,170.6475,1194.4568,168.2075,1196.8968" style="stroke:#181818;stroke-width:0.61;"/><line style="stroke:#181818;stroke-width:0.61;" x1="168.2075" x2="168.2075" y1="1124.1383" y2="1136.3383"/><polygon fill="#181818" points="165.7675,1130.2383,168.2075,1136.3383,170.6475,1130.2383,168.2075,1132.6783" style="stroke:#181818;stroke-width:0.61;"/><line style="stroke:#181818;stroke-width:0.61;" x1="168.2075" x2="168.2075" y1="1279.4154" y2="1300.7654"/><polygon fill="#181818" points="165.7675,1294.6654,168.2075,1300.7654,170.6475,1294.6654,168.2075,1297.1054" style="stroke:#181818;stroke-width:0.61;"/><line style="stroke:#181818;stroke-width:0.61;" x1="168.2075" x2="168.2075" y1="1242.0368" y2="1257.4793"/><polygon fill="#181818" points="165.7675,1251.3793,168.2075,1257.4793,170.6475,1251.3793,168.2075,1253.8193" style="stroke:#181818;stroke-width:0.61;"/><line style="stroke:#181818;stroke-width:0.61;" x1="205.7225" x2="227.9875" y1="1234.7168" y2="1234.7168"/><polygon fill="#181818" points="225.5475,1283.9904,227.9875,1290.0904,230.4275,1283.9904,227.9875,1286.4304" style="stroke:#181818;stroke-width:0.61;"/><line style="stroke:#181818;stroke-width:0.61;" x1="227.9875" x2="227.9875" y1="1234.7168" y2="1342.2216"/><line style="stroke:#181818;stroke-width:0.61;" x1="227.9875" x2="175.5275" y1="1342.2216" y2="1342.2216"/><polygon fill="#181818" points="181.6275,1339.7816,175.5275,1342.2216,181.6275,1344.6616,179.1875,1342.2216" style="stroke:#181818;stroke-width:0.61;"/><line style="stroke:#181818;stroke-width:0.61;" x1="168.2075" x2="168.2075" y1="1322.7016" y2="1334.9016"/><polygon fill="#181818" points="165.7675,1328.8016,168.2075,1334.9016,170.6475,1328.8016,168.2075,1331.2416" style="stroke:#181818;stroke-width:0.61;"/><line style="stroke:#181818;stroke-width:0.61;" x1="168.2075" x2="168.2075" y1="1215.1968" y2="1227.3968"/><polygon fill="#181818" points="165.7675,1221.2968,168.2075,1227.3968,170.6475,1221.2968,168.2075,1223.7368" style="stroke:#181818;stroke-width:0.61;"/><line style="stroke:#181818;stroke-width:0.61;" x1="168.2075" x2="168.2075" y1="386.5017" y2="398.7017"/><polygon fill="#181818" points="165.7675,392.6017,168.2075,398.7017,170.6475,392.6017,168.2075,395.0417" style="stroke:#181818;stroke-width:0.61;"/><line style="stroke:#181818;stroke-width:0.61;" x1="168.2075" x2="168.2075" y1="1349.5416" y2="1378.8216"/><line style="stroke:#181818;stroke-width:0.61;" x1="168.2075" x2="336.11" y1="1378.8216" y2="1378.8216"/><polygon fill="#181818" points="333.67,876.5617,336.11,870.4617,338.55,876.5617,336.11,874.1217" style="stroke:#181818;stroke-width:0.61;"/><line style="stroke:#181818;stroke-width:0.61;" x1="336.11" x2="336.11" y1="379.1817" y2="1378.8216"/><line style="stroke:#181818;stroke-width:0.61;" x1="336.11" x2="175.5275" y1="379.1817" y2="379.1817"/><polygon fill="#181818" points="181.6275,376.7417,175.5275,379.1817,181.6275,381.6217,179.1875,379.1817" style="stroke:#181818;stroke-width:0.61;"/><line style="stroke:#181818;stroke-width:0.61;" x1="168.2075" x2="168.2075" y1="359.6617" y2="371.8617"/><polygon fill="#181818" points="165.7675,365.7617,168.2075,371.8617,170.6475,365.7617,168.2075,368.2017" style="stroke:#181818;stroke-width:0.61;"/><!--SRC=[XLJDRjf04BxxAUOM8X6fa41QJ5gva4YjQ2CbKTKU1tk0LTThkXwZvY7wDBdrM5wiipROnfZs0lRipFSpC-j7Hik-DsAArn0c9bLBWq0fgmnkeF_gel_cp-_9KS9ARSWQoUXTN_I7HGQPa4na2TPe6BL6c4sczVZiTfhMtoDY2Zcn49qbyvGnrEJEPvgMolxdrCaXYvnPh8AhB5QCN0NcLeaEur3aGKuDXchx8WbnahB50gUqrIrUCUGCTTV1WQfZ88YflJlVyooj2TbJ2-XS3c2S5unXE81tvy0hCj1vtFuwzs0apg4ltPAcHRu7f5E2pkVxnb5CMlkUz4OjSinSp4tLz3RKtcdKNXsrn7jRuXsY5JMNKZFNcFakK0vgGuQLthKEwaG09V3ubCuQT2a7wl0XQbhiq0ltzLz7i5-0tL8WjxNYIeRb_WSL4IZ3ygHO30XfEVM3GOuWc0KFdm889ayVlWJJm0Lk7vu2gN3awqId6CduUx2s56TDycFs-xkxHfyAAqSZEYggB9Ui_NRMl7xOpSklTp2lY-cPqB4xaA_mCNcMknn-XpXPrZ02rm3fFMDk0BDbB2t2-esf74Zo6QK_ChAsI8zKAbSfKqVfxIvRL3RCVZkjCqBD3gYIkBko-Qu9I25nZkgdIwkaDT9AhlS9RrygllRc7dxjv4DujMTojWwcXFzSZb68PgD4DRaDBYvGkORxMFF3qcJw2m00]--></g></svg>